<svg xmlns="http://www.w3.org/2000/svg" viewBox="0 0 584.72 286.88"><defs><style>.cls-1,.cls-2{fill:none;stroke:#010101;stroke-linecap:round;stroke-linejoin:round;}.cls-1{stroke-width:0.08px;}.cls-2{stroke-width:0.4px;}</style></defs><title>Fmargaretmorrisonfloorplan</title><g id="Layer_2" data-name="Layer 2"><g id="Layer_4" data-name="Layer 4"><line class="cls-1" x1="532.52" y1="98.46" x2="563.69" y2="98.46"/><line class="cls-1" x1="563.69" y1="90.63" x2="532.52" y2="90.63"/><line class="cls-1" x1="563.69" y1="90.63" x2="563.69" y2="93.92"/><line class="cls-1" x1="564.23" y1="95.95" x2="578.56" y2="95.95"/><line class="cls-1" x1="564.23" y1="96.81" x2="578.48" y2="96.81"/><line class="cls-1" x1="564.23" y1="95.09" x2="578.48" y2="95.09"/><line class="cls-1" x1="532.52" y1="98.46" x2="501.21" y2="98.46"/><line class="cls-1" x1="501.83" y1="95.09" x2="516" y2="95.09"/><line class="cls-1" x1="501.83" y1="96.58" x2="516" y2="96.58"/><line class="cls-1" x1="501.83" y1="95.95" x2="516.16" y2="95.95"/><line class="cls-1" x1="532.52" y1="90.63" x2="532.52" y2="93.99"/><line class="cls-1" x1="501.21" y1="90.63" x2="501.21" y2="93.92"/><line class="cls-1" x1="517.88" y1="95.09" x2="532.13" y2="95.09"/><line class="cls-1" x1="517.88" y1="95.95" x2="531.98" y2="95.95"/><line class="cls-1" x1="517.88" y1="96.81" x2="532.13" y2="96.81"/><line class="cls-1" x1="501.21" y1="90.63" x2="469.97" y2="90.63"/><line class="cls-1" x1="455.48" y1="96.58" x2="469.57" y2="96.58"/><line class="cls-1" x1="455.48" y1="95.95" x2="469.5" y2="95.95"/><line class="cls-1" x1="455.48" y1="95.09" x2="469.57" y2="95.09"/><line class="cls-1" x1="438.8" y1="90.63" x2="438.8" y2="93.92"/><line class="cls-1" x1="469.97" y1="90.63" x2="469.97" y2="93.99"/><line class="cls-1" x1="439.43" y1="95.95" x2="453.68" y2="95.95"/><line class="cls-1" x1="439.43" y1="96.58" x2="453.6" y2="96.58"/><line class="cls-1" x1="439.43" y1="95.09" x2="453.6" y2="95.09"/><line class="cls-1" x1="469.97" y1="98.46" x2="438.8" y2="98.46"/><line class="cls-1" x1="499.95" y1="98.46" x2="471.53" y2="98.46"/><line class="cls-1" x1="407.56" y1="98.46" x2="376.4" y2="98.46"/><line class="cls-1" x1="376.95" y1="95.09" x2="391.12" y2="95.09"/><line class="cls-1" x1="376.95" y1="96.58" x2="391.12" y2="96.58"/><line class="cls-1" x1="376.95" y1="95.95" x2="391.12" y2="95.95"/><line class="cls-1" x1="407.56" y1="90.63" x2="407.56" y2="93.99"/><line class="cls-1" x1="376.4" y1="90.63" x2="376.4" y2="93.92"/><line class="cls-1" x1="393" y1="95.09" x2="407.17" y2="95.09"/><line class="cls-1" x1="393" y1="95.95" x2="407.02" y2="95.95"/><line class="cls-1" x1="393" y1="96.58" x2="407.17" y2="96.58"/><line class="cls-1" x1="438.8" y1="90.63" x2="407.56" y2="90.63"/><line class="cls-1" x1="437.55" y1="98.46" x2="409.05" y2="98.46"/><line class="cls-1" x1="314.24" y1="95.09" x2="328.33" y2="95.09"/><line class="cls-1" x1="314.24" y1="96.5" x2="328.33" y2="96.5"/><line class="cls-1" x1="314.24" y1="95.87" x2="328.33" y2="95.87"/><line class="cls-1" x1="344.77" y1="90.63" x2="344.77" y2="92.59"/><line class="cls-1" x1="313.61" y1="90.55" x2="313.61" y2="93.92"/><line class="cls-1" x1="330.21" y1="95.09" x2="344.38" y2="95.09"/><line class="cls-1" x1="330.21" y1="95.87" x2="344.3" y2="95.87"/><line class="cls-1" x1="330.21" y1="96.5" x2="344.38" y2="96.5"/><line class="cls-1" x1="376.4" y1="90.63" x2="344.77" y2="90.63"/><line class="cls-1" x1="376.4" y1="92.12" x2="344.77" y2="92.12"/><line class="cls-1" x1="438.8" y1="92.12" x2="407.56" y2="92.12"/><line class="cls-1" x1="375.07" y1="96.97" x2="346.65" y2="96.97"/><line class="cls-1" x1="437.55" y1="96.97" x2="409.05" y2="96.97"/><line class="cls-1" x1="501.21" y1="92.12" x2="469.97" y2="92.12"/><line class="cls-1" x1="563.69" y1="92.12" x2="532.52" y2="92.12"/><line class="cls-1" x1="499.95" y1="96.97" x2="471.53" y2="96.97"/><line class="cls-1" x1="533.93" y1="96.97" x2="562.35" y2="96.97"/><line class="cls-1" x1="535.73" y1="245.89" x2="535.73" y2="249.72"/><polyline class="cls-1" points="559.14 245.89 559.14 249.72 535.73 249.72"/><line class="cls-1" x1="559.14" y1="245.89" x2="535.73" y2="245.89"/><line class="cls-1" x1="563.06" y1="253.01" x2="531.9" y2="253.01"/><line class="cls-1" x1="563.92" y1="244.24" x2="531.27" y2="244.24"/><line class="cls-2" x1="531.9" y1="253.01" x2="531.9" y2="248.71"/><line class="cls-2" x1="472.78" y1="245.89" x2="472.78" y2="249.72"/><polyline class="cls-2" points="496.27 245.89 496.27 249.72 472.79 249.72"/><line class="cls-2" x1="496.27" y1="245.89" x2="472.78" y2="245.89"/><line class="cls-2" x1="500.19" y1="253.01" x2="468.95" y2="253.01"/><line class="cls-2" x1="500.97" y1="244.24" x2="468.32" y2="244.24"/><line class="cls-2" x1="468.95" y1="253.01" x2="468.95" y2="248.71"/><line class="cls-2" x1="409.91" y1="245.89" x2="409.91" y2="249.72"/><polyline class="cls-2" points="433.32 245.89 433.32 249.72 409.91 249.72"/><line class="cls-2" x1="433.32" y1="245.89" x2="409.91" y2="245.89"/><line class="cls-2" x1="437.24" y1="253.01" x2="406" y2="253.01"/><line class="cls-2" x1="438.02" y1="244.24" x2="405.37" y2="244.24"/><line class="cls-2" x1="406" y1="253.01" x2="406" y2="248.71"/><line class="cls-2" x1="346.96" y1="245.89" x2="346.96" y2="249.72"/><polyline class="cls-2" points="370.45 245.89 370.45 249.72 346.96 249.72"/><line class="cls-2" x1="370.45" y1="245.89" x2="346.96" y2="245.89"/><line class="cls-2" x1="374.29" y1="253.01" x2="343.05" y2="253.01"/><line class="cls-2" x1="375.15" y1="244.24" x2="342.42" y2="244.24"/><line class="cls-2" x1="343.05" y1="253.01" x2="343.05" y2="248.71"/><line class="cls-2" x1="284.09" y1="245.89" x2="284.09" y2="249.72"/><polyline class="cls-2" points="307.5 245.89 307.5 249.72 284.09 249.72"/><line class="cls-2" x1="307.5" y1="245.89" x2="284.09" y2="245.89"/><line class="cls-2" x1="311.42" y1="253.01" x2="280.18" y2="253.01"/><line class="cls-2" x1="312.2" y1="244.24" x2="279.55" y2="244.24"/><line class="cls-2" x1="280.18" y1="253.01" x2="280.18" y2="248.71"/><line class="cls-2" x1="221.14" y1="245.89" x2="221.14" y2="249.72"/><polyline class="cls-2" points="244.55 245.89 244.55 249.72 221.14 249.72"/><line class="cls-2" x1="244.55" y1="245.89" x2="221.14" y2="245.89"/><line class="cls-2" x1="248.47" y1="253.01" x2="217.23" y2="253.01"/><line class="cls-2" x1="249.33" y1="244.24" x2="216.6" y2="244.24"/><line class="cls-2" x1="217.23" y1="253.01" x2="217.23" y2="248.78"/><line class="cls-2" x1="158.19" y1="245.81" x2="158.19" y2="249.72"/><polyline class="cls-2" points="181.68 245.81 181.68 249.72 158.19 249.72"/><line class="cls-2" x1="181.68" y1="245.81" x2="158.19" y2="245.81"/><line class="cls-2" x1="185.6" y1="253.01" x2="154.28" y2="253.01"/><line class="cls-2" x1="185.6" y1="244.24" x2="154.28" y2="244.24"/><line class="cls-2" x1="154.28" y1="253.01" x2="154.28" y2="248.71"/><line class="cls-1" x1="578.17" y1="247.61" x2="563.92" y2="247.61"/><line class="cls-1" x1="578.17" y1="246.75" x2="564.08" y2="246.75"/><line class="cls-1" x1="578.17" y1="245.89" x2="563.92" y2="245.89"/><line class="cls-2" x1="531.27" y1="244.24" x2="500.97" y2="244.24"/><line class="cls-2" x1="531.27" y1="247.61" x2="517.1" y2="247.61"/><line class="cls-2" x1="531.27" y1="245.97" x2="517.1" y2="245.97"/><line class="cls-2" x1="531.27" y1="246.75" x2="517.26" y2="246.75"/><line class="cls-2" x1="515.22" y1="247.61" x2="501.05" y2="247.61"/><line class="cls-2" x1="515.22" y1="246.75" x2="501.13" y2="246.75"/><line class="cls-2" x1="515.22" y1="245.89" x2="501.05" y2="245.89"/><line class="cls-2" x1="500.27" y1="252" x2="531.9" y2="252"/><line class="cls-2" x1="468.32" y1="244.24" x2="438.02" y2="244.24"/><line class="cls-2" x1="468.32" y1="247.61" x2="454.15" y2="247.61"/><line class="cls-2" x1="468.32" y1="245.97" x2="454.15" y2="245.97"/><line class="cls-2" x1="468.32" y1="246.75" x2="454.38" y2="246.75"/><line class="cls-2" x1="452.27" y1="247.61" x2="438.1" y2="247.61"/><line class="cls-2" x1="452.27" y1="246.75" x2="438.26" y2="246.75"/><line class="cls-2" x1="452.27" y1="245.89" x2="438.1" y2="245.89"/><line class="cls-2" x1="437.32" y1="252" x2="468.87" y2="252"/><line class="cls-2" x1="405.37" y1="244.24" x2="375.15" y2="244.24"/><line class="cls-2" x1="405.37" y1="247.61" x2="391.28" y2="247.61"/><line class="cls-2" x1="405.37" y1="245.97" x2="391.28" y2="245.97"/><line class="cls-2" x1="405.37" y1="246.75" x2="391.44" y2="246.75"/><line class="cls-2" x1="389.4" y1="247.61" x2="375.23" y2="247.61"/><line class="cls-2" x1="389.4" y1="246.75" x2="375.31" y2="246.75"/><line class="cls-2" x1="389.4" y1="245.89" x2="375.23" y2="245.89"/><line class="cls-2" x1="374.37" y1="252" x2="406" y2="252"/><line class="cls-2" x1="342.42" y1="244.24" x2="312.2" y2="244.24"/><line class="cls-2" x1="342.42" y1="247.61" x2="328.25" y2="247.61"/><line class="cls-2" x1="342.42" y1="245.97" x2="328.25" y2="245.97"/><line class="cls-2" x1="342.42" y1="246.75" x2="328.41" y2="246.75"/><line class="cls-2" x1="326.37" y1="247.61" x2="312.28" y2="247.61"/><line class="cls-2" x1="326.37" y1="246.75" x2="312.36" y2="246.75"/><line class="cls-2" x1="326.37" y1="245.89" x2="312.28" y2="245.89"/><line class="cls-2" x1="311.5" y1="252" x2="343.05" y2="252"/><line class="cls-2" x1="279.55" y1="244.24" x2="249.33" y2="244.24"/><line class="cls-2" x1="279.55" y1="247.61" x2="265.38" y2="247.61"/><line class="cls-2" x1="279.55" y1="245.97" x2="265.38" y2="245.97"/><line class="cls-2" x1="279.55" y1="246.75" x2="265.54" y2="246.75"/><line class="cls-2" x1="263.5" y1="247.61" x2="249.33" y2="247.61"/><line class="cls-2" x1="263.5" y1="246.75" x2="249.49" y2="246.75"/><line class="cls-2" x1="263.5" y1="245.89" x2="249.33" y2="245.89"/><line class="cls-2" x1="248.55" y1="252" x2="280.1" y2="252"/><line class="cls-2" x1="216.6" y1="244.24" x2="186.38" y2="244.24"/><line class="cls-2" x1="216.6" y1="247.61" x2="202.43" y2="247.61"/><line class="cls-2" x1="216.6" y1="245.97" x2="202.43" y2="245.97"/><line class="cls-2" x1="216.6" y1="246.75" x2="202.59" y2="246.75"/><line class="cls-2" x1="200.55" y1="247.61" x2="186.46" y2="247.61"/><line class="cls-2" x1="200.55" y1="246.75" x2="186.54" y2="246.75"/><line class="cls-2" x1="200.55" y1="245.89" x2="186.46" y2="245.89"/><line class="cls-2" x1="185.6" y1="252" x2="217.23" y2="252"/><line class="cls-2" x1="153.73" y1="247.61" x2="139.48" y2="247.61"/><line class="cls-2" x1="153.73" y1="245.97" x2="139.48" y2="245.97"/><line class="cls-2" x1="153.73" y1="246.75" x2="139.64" y2="246.75"/><line class="cls-2" x1="137.6" y1="247.61" x2="123.43" y2="247.61"/><line class="cls-2" x1="137.6" y1="246.75" x2="123.59" y2="246.75"/><line class="cls-2" x1="137.6" y1="245.89" x2="123.43" y2="245.89"/><line class="cls-2" x1="122.65" y1="252" x2="154.28" y2="252"/><line class="cls-1" x1="563.06" y1="248.71" x2="563.06" y2="253.01"/><line class="cls-2" x1="500.19" y1="248.71" x2="500.19" y2="253.01"/><line class="cls-2" x1="437.24" y1="248.71" x2="437.24" y2="253.01"/><line class="cls-2" x1="374.29" y1="248.71" x2="374.29" y2="253.01"/><line class="cls-2" x1="311.42" y1="248.78" x2="311.42" y2="253.01"/><line class="cls-2" x1="248.47" y1="248.71" x2="248.47" y2="253.01"/><line class="cls-2" x1="185.6" y1="248.71" x2="185.6" y2="253.01"/><line class="cls-2" x1="122.57" y1="248.71" x2="122.57" y2="253.01"/><line class="cls-2" x1="153.73" y1="244.24" x2="123.35" y2="244.24"/><line class="cls-2" x1="121.47" y1="244.24" x2="103.23" y2="244.24"/><line class="cls-2" x1="118.65" y1="245.81" x2="109.65" y2="245.81"/><line class="cls-2" x1="171.89" y1="132.36" x2="171.03" y2="132.36"/><line class="cls-2" x1="166.65" y1="137.53" x2="173.15" y2="137.53"/><line class="cls-2" x1="166.65" y1="132.36" x2="166.65" y2="137.53"/><line class="cls-2" x1="173.15" y1="132.36" x2="173.15" y2="137.53"/><line class="cls-2" x1="206.97" y1="130.4" x2="245.88" y2="130.4"/><line class="cls-2" x1="229.29" y1="132.2" x2="229.29" y2="137.53"/><line class="cls-2" x1="236.1" y1="132.2" x2="236.1" y2="137.53"/><line class="cls-2" x1="292.47" y1="132.2" x2="292.47" y2="137.53"/><line class="cls-2" x1="299.05" y1="132.36" x2="299.05" y2="137.53"/><line class="cls-2" x1="292.47" y1="137.53" x2="299.05" y2="137.53"/><line class="cls-2" x1="355.42" y1="132.2" x2="355.42" y2="137.37"/><line class="cls-2" x1="376.25" y1="131.89" x2="376.25" y2="137.37"/><line class="cls-2" x1="425.02" y1="132.12" x2="425.02" y2="137.29"/><polyline class="cls-2" points="376.25 131.89 383.45 131.89 383.45 130.4"/><polyline class="cls-2" points="418.21 132.05 396.99 132.05 396.99 130.32 446.87 130.32"/><line class="cls-1" x1="550.69" y1="137.29" x2="542.47" y2="137.29"/><line class="cls-1" x1="550.69" y1="132.12" x2="550.69" y2="137.29"/><line class="cls-1" x1="542.47" y1="132.05" x2="522.35" y2="132.05"/><line class="cls-1" x1="542.47" y1="132.05" x2="542.47" y2="137.29"/><line class="cls-2" x1="487.82" y1="132.12" x2="487.82" y2="137.53"/><line class="cls-2" x1="469.26" y1="132.12" x2="460.65" y2="132.12"/><line class="cls-2" x1="522.35" y1="132.05" x2="522.35" y2="130.17"/><polyline class="cls-2" points="508.72 130.17 508.72 132.13 487.82 132.13"/><line class="cls-1" x1="522.35" y1="130.17" x2="576.6" y2="130.17"/><line class="cls-2" x1="355.42" y1="137.37" x2="376.25" y2="137.37"/><line class="cls-1" x1="313.61" y1="90.55" x2="300.22" y2="90.55"/><line class="cls-1" x1="107.14" y1="280.02" x2="107.14" y2="263.43"/><line class="cls-1" x1="103.23" y1="278.07" x2="103.23" y2="244.24"/><line class="cls-1" x1="77.16" y1="281.98" x2="99.16" y2="281.98"/><line class="cls-1" x1="71.13" y1="278.07" x2="103.23" y2="278.07"/><line class="cls-1" x1="44.19" y1="278.07" x2="15.38" y2="278.07"/><line class="cls-1" x1="38.17" y1="281.98" x2="19.3" y2="281.98"/><line class="cls-2" x1="107.14" y1="253.01" x2="122.57" y2="253.01"/><line class="cls-1" x1="107.14" y1="263.43" x2="107.14" y2="253.01"/><line class="cls-2" x1="108.48" y1="253.01" x2="107.14" y2="253.01"/><polyline class="cls-2" points="109.65 249.72 118.65 249.72 118.65 245.81"/><line class="cls-1" x1="15.38" y1="278.07" x2="15.38" y2="241.5"/><polyline class="cls-1" points="19.3 285.9 13.43 285.9 13.43 283.94 9.51 283.94 9.51 280.02 7.55 280.02"/><line class="cls-1" x1="19.3" y1="285.9" x2="37.77" y2="285.9"/><polyline class="cls-1" points="19.3 281.98 15.38 281.98 15.38 278.07 11.47 278.07"/><line class="cls-1" x1="99.31" y1="278.07" x2="103.23" y2="278.07"/><line class="cls-1" x1="99.31" y1="281.98" x2="99.31" y2="278.07"/><line class="cls-1" x1="104.95" y1="280.02" x2="107.14" y2="280.02"/><line class="cls-1" x1="104.95" y1="283.94" x2="104.95" y2="280.02"/><line class="cls-1" x1="101.12" y1="283.94" x2="104.95" y2="283.94"/><line class="cls-1" x1="101.12" y1="285.9" x2="101.12" y2="283.94"/><line class="cls-2" x1="105.81" y1="244.24" x2="105.81" y2="197.11"/><line class="cls-2" x1="99.94" y1="197.11" x2="105.81" y2="197.11"/><line class="cls-2" x1="107.14" y1="244.24" x2="107.14" y2="132.2"/><line class="cls-2" x1="101.27" y1="195.78" x2="105.81" y2="195.78"/><line class="cls-2" x1="99.94" y1="197.11" x2="99.94" y2="175.27"/><line class="cls-2" x1="101.27" y1="195.78" x2="101.27" y2="188.89"/><line class="cls-2" x1="105.89" y1="175.27" x2="105.89" y2="144.65"/><line class="cls-1" x1="7.55" y1="240.33" x2="7.55" y2="280.02"/><polyline class="cls-1" points="11.47 278.07 11.47 242.91 13.43 242.91 13.43 238.37 11.47 238.37 11.47 240.33 7.55 240.33"/><line class="cls-1" x1="13.5" y1="241.5" x2="15.38" y2="241.5"/><line class="cls-1" x1="7.55" y1="240.33" x2="7.55" y2="213.08"/><line class="cls-1" x1="13.5" y1="211.83" x2="15.38" y2="211.83"/><line class="cls-1" x1="11.47" y1="213.08" x2="7.55" y2="213.08"/><line class="cls-1" x1="11.47" y1="215.04" x2="11.47" y2="213.08"/><line class="cls-1" x1="13.42" y1="215.04" x2="11.47" y2="215.04"/><line class="cls-1" x1="13.42" y1="210.42" x2="13.42" y2="215.04"/><line class="cls-1" x1="11.47" y1="210.42" x2="13.42" y2="210.42"/><line class="cls-1" x1="13.42" y1="215.04" x2="13.42" y2="238.37"/><line class="cls-1" x1="11.47" y1="215.04" x2="11.47" y2="238.37"/><line class="cls-1" x1="12.41" y1="215.04" x2="12.41" y2="225.77"/><polyline class="cls-1" points="11.47 210.42 11.47 198.75 15.38 198.75"/><polyline class="cls-1" points="13.43 185.68 11.47 185.68 11.47 187.64 7.55 187.64"/><line class="cls-1" x1="15.38" y1="190.92" x2="15.38" y2="188.97"/><line class="cls-2" x1="105.81" y1="195.78" x2="105.81" y2="188.89"/><polyline class="cls-1" points="11.47 226.71 11.47 225.77 13.43 225.77 13.43 227.65 11.47 227.65 11.47 226.71"/><line class="cls-1" x1="12.41" y1="227.65" x2="12.41" y2="238.37"/><line class="cls-1" x1="11.47" y1="174.95" x2="11.47" y2="174.01"/><line class="cls-1" x1="13.42" y1="174.95" x2="11.47" y2="174.95"/><line class="cls-1" x1="13.42" y1="172.99" x2="13.42" y2="174.95"/><line class="cls-1" x1="11.47" y1="172.99" x2="13.42" y2="172.99"/><line class="cls-1" x1="11.47" y1="174.01" x2="11.47" y2="172.99"/><line class="cls-1" x1="11.47" y1="162.27" x2="11.47" y2="185.68"/><line class="cls-1" x1="12.41" y1="162.27" x2="12.41" y2="172.99"/><line class="cls-1" x1="12.41" y1="174.95" x2="12.41" y2="185.68"/><line class="cls-1" x1="13.42" y1="162.27" x2="13.42" y2="185.68"/><line class="cls-1" x1="11.47" y1="132.36" x2="7.55" y2="132.36"/><line class="cls-1" x1="13.42" y1="130.87" x2="11.47" y2="130.87"/><polyline class="cls-1" points="13.43 159.14 13.43 162.27 11.47 162.27 11.47 160.31 7.55 160.31"/><line class="cls-1" x1="13.42" y1="159.14" x2="15.38" y2="159.14"/><line class="cls-1" x1="7.55" y1="187.64" x2="7.55" y2="160.31"/><line class="cls-1" x1="15.38" y1="187.01" x2="15.38" y2="136.82"/><polyline class="cls-1" points="11.47 107.31 11.47 105.35 7.55 105.35"/><line class="cls-1" x1="13.42" y1="105.43" x2="13.42" y2="107.38"/><line class="cls-2" x1="229.29" y1="137.53" x2="236.1" y2="137.53"/><line class="cls-1" x1="7.55" y1="105.35" x2="7.55" y2="78.02"/><line class="cls-1" x1="13.42" y1="77.94" x2="15.38" y2="77.94"/><line class="cls-1" x1="13.42" y1="105.43" x2="15.38" y2="105.43"/><line class="cls-1" x1="11.47" y1="105.35" x2="7.55" y2="105.35"/><line class="cls-1" x1="11.47" y1="107.3" x2="11.47" y2="105.35"/><polyline class="cls-1" points="13.43 76.06 11.47 76.06 11.47 78.02 7.55 78.02"/><line class="cls-1" x1="15.38" y1="77.94" x2="15.38" y2="105.43"/><line class="cls-1" x1="13.42" y1="105.43" x2="13.42" y2="107.3"/><line class="cls-1" x1="13.42" y1="76.06" x2="13.42" y2="77.94"/><line class="cls-1" x1="13.42" y1="52.73" x2="11.47" y2="52.73"/><line class="cls-1" x1="13.42" y1="52.73" x2="13.42" y2="76.06"/><line class="cls-1" x1="12.41" y1="65.42" x2="12.41" y2="76.06"/><line class="cls-1" x1="12.41" y1="52.73" x2="12.41" y2="63.46"/><line class="cls-1" x1="11.47" y1="52.73" x2="11.47" y2="76.06"/><polyline class="cls-1" points="11.47 64.4 11.47 63.46 13.43 63.46 13.43 65.42 11.47 65.42 11.47 64.4"/><line class="cls-1" x1="13.42" y1="76.06" x2="11.47" y2="76.06"/><polyline class="cls-1" points="11.47 52.73 11.47 50.78 7.55 50.78"/><polyline class="cls-1" points="13.43 52.73 13.43 48.82 13.43 48.19 11.62 48.19"/><polyline class="cls-1" points="13.66 50.54 15.54 50.54 15.54 8.65"/><polyline class="cls-1" points="265.07 8.65 72.38 8.65 15.54 8.65 15.54 4.82"/><line class="cls-1" x1="11.62" y1="8.65" x2="15.54" y2="8.65"/><line class="cls-1" x1="11.62" y1="48.19" x2="11.62" y2="8.65"/><line class="cls-1" x1="13.66" y1="2.78" x2="13.66" y2="0.98"/><line class="cls-1" x1="9.74" y1="2.78" x2="13.66" y2="2.78"/><line class="cls-1" x1="9.74" y1="6.7" x2="9.74" y2="2.78"/><line class="cls-1" x1="7.55" y1="6.7" x2="9.74" y2="6.7"/><line class="cls-1" x1="7.55" y1="50.78" x2="7.55" y2="6.7"/><line class="cls-1" x1="19.45" y1="4.82" x2="15.54" y2="4.82"/><line class="cls-1" x1="70.19" y1="6.7" x2="71.6" y2="6.7"/><line class="cls-1" x1="72.15" y1="4.74" x2="72.15" y2="0.98"/><line class="cls-1" x1="70.19" y1="4.74" x2="72.15" y2="4.74"/><line class="cls-1" x1="46.86" y1="6.7" x2="46.86" y2="4.74"/><line class="cls-1" x1="57.5" y1="4.74" x2="58.44" y2="4.74"/><line class="cls-1" x1="57.5" y1="6.7" x2="57.5" y2="4.74"/><line class="cls-1" x1="59.46" y1="6.7" x2="57.5" y2="6.7"/><line class="cls-1" x1="59.46" y1="4.74" x2="59.46" y2="6.7"/><line class="cls-1" x1="58.44" y1="4.74" x2="59.46" y2="4.74"/><line class="cls-1" x1="70.19" y1="4.74" x2="46.86" y2="4.74"/><line class="cls-1" x1="70.19" y1="5.76" x2="59.46" y2="5.76"/><line class="cls-1" x1="57.5" y1="5.76" x2="46.86" y2="5.76"/><line class="cls-1" x1="70.19" y1="6.7" x2="46.86" y2="6.7"/><line class="cls-1" x1="70.19" y1="6.7" x2="70.19" y2="4.74"/><line class="cls-1" x1="46.86" y1="6.7" x2="44.98" y2="6.7"/><line class="cls-1" x1="44.9" y1="4.74" x2="44.9" y2="0.98"/><line class="cls-1" x1="46.86" y1="4.74" x2="44.9" y2="4.74"/><line class="cls-1" x1="46.86" y1="6.7" x2="46.86" y2="4.74"/><line class="cls-1" x1="44.98" y1="6.7" x2="44.98" y2="8.65"/><line class="cls-1" x1="13.66" y1="0.98" x2="44.9" y2="0.98"/><polyline class="cls-1" points="44.98 6.7 43.02 6.7 42.32 6.7 42.32 4.74 19.53 4.74"/><polyline class="cls-1" points="98.22 4.74 98.22 6.93 106.05 6.93 106.05 4.97 104.09 4.97 104.09 0.98"/><line class="cls-1" x1="72.15" y1="0.98" x2="104.09" y2="0.98"/><polyline class="cls-1" points="92.35 0.04 6.61 0.04 6.61 56.73"/><polyline class="cls-2" points="105.89 144.65 100.41 144.65 100.41 130.4"/><line class="cls-1" x1="296.38" y1="80.84" x2="296.38" y2="6.54"/><polyline class="cls-1" points="292.47 96.5 292.47 80.84 296.38 80.84"/><polyline class="cls-1" points="265.07 96.97 265.07 8.65 296.38 8.65"/><line class="cls-1" x1="294.43" y1="65.34" x2="282.53" y2="65.34"/><line class="cls-1" x1="294.43" y1="62.36" x2="282.68" y2="62.36"/><line class="cls-1" x1="294.43" y1="59.47" x2="282.68" y2="59.47"/><line class="cls-1" x1="294.43" y1="56.49" x2="282.68" y2="56.49"/><line class="cls-1" x1="294.43" y1="53.59" x2="282.68" y2="53.59"/><line class="cls-1" x1="294.43" y1="50.7" x2="282.68" y2="50.7"/><line class="cls-1" x1="294.43" y1="47.72" x2="282.68" y2="47.72"/><line class="cls-1" x1="294.43" y1="44.83" x2="282.68" y2="44.83"/><line class="cls-1" x1="294.43" y1="41.85" x2="282.68" y2="41.85"/><line class="cls-1" x1="294.43" y1="38.95" x2="282.68" y2="38.95"/><line class="cls-1" x1="294.43" y1="35.98" x2="282.68" y2="35.98"/><line class="cls-1" x1="294.43" y1="33.08" x2="282.68" y2="33.08"/><line class="cls-1" x1="278.85" y1="29.87" x2="267.1" y2="29.87"/><line class="cls-1" x1="278.85" y1="32.77" x2="267.1" y2="32.77"/><line class="cls-1" x1="278.85" y1="35.74" x2="267.1" y2="35.74"/><line class="cls-1" x1="278.85" y1="44.51" x2="275.24" y2="44.51"/><line class="cls-1" x1="278.85" y1="47.49" x2="267.1" y2="47.49"/><line class="cls-1" x1="278.85" y1="50.38" x2="267.1" y2="50.38"/><line class="cls-1" x1="278.85" y1="53.28" x2="267.1" y2="53.28"/><line class="cls-1" x1="278.85" y1="56.26" x2="267.1" y2="56.26"/><line class="cls-1" x1="278.85" y1="59.15" x2="267.1" y2="59.15"/><line class="cls-1" x1="278.85" y1="62.13" x2="267.1" y2="62.13"/><line class="cls-1" x1="294.43" y1="33.08" x2="294.43" y2="65.34"/><line class="cls-1" x1="295.37" y1="32.3" x2="295.37" y2="65.89"/><polyline class="cls-1" points="294.43 65.34 294.43 65.89 295.37 65.89"/><polyline class="cls-1" points="294.43 33.08 294.43 32.3 295.37 32.3"/><line class="cls-1" x1="267.1" y1="29.87" x2="267.1" y2="62.13"/><line class="cls-1" x1="266.16" y1="28.93" x2="266.16" y2="62.91"/><polyline class="cls-1" points="267.1 62.13 267.1 62.91 266.16 62.91"/><polyline class="cls-1" points="267.1 29.87 267.1 28.93 266.16 28.93"/><line class="cls-1" x1="278.85" y1="29.87" x2="278.85" y2="37.31"/><polyline class="cls-1" points="278.85 29.87 282.53 29.87 282.53 65.34"/><line class="cls-1" x1="279.39" y1="30.5" x2="279.39" y2="37"/><line class="cls-1" x1="281.98" y1="30.5" x2="281.98" y2="36.06"/><line class="cls-1" x1="279.39" y1="30.5" x2="281.98" y2="30.5"/><line class="cls-1" x1="279.39" y1="64.79" x2="281.98" y2="64.79"/><line class="cls-1" x1="282.68" y1="35.98" x2="275.4" y2="38.64"/><line class="cls-1" x1="282.68" y1="38.95" x2="273.91" y2="42.08"/><line class="cls-1" x1="278.85" y1="43.26" x2="278.85" y2="65.34"/><line class="cls-1" x1="279.39" y1="42.79" x2="279.39" y2="64.79"/><line class="cls-1" x1="281.98" y1="42.16" x2="281.98" y2="64.79"/><line class="cls-1" x1="273.44" y1="39.34" x2="267.1" y2="41.61"/><line class="cls-1" x1="271.96" y1="42.79" x2="267.1" y2="44.51"/><polyline class="cls-1" points="273.44 39.34 273.91 37.31 274.93 41.15 275.4 38.64"/><line class="cls-1" x1="273.44" y1="44.59" x2="273.91" y2="42.08"/><line class="cls-1" x1="272.43" y1="40.75" x2="273.44" y2="44.59"/><line class="cls-1" x1="271.96" y1="42.79" x2="272.43" y2="40.75"/><line class="cls-1" x1="275.24" y1="44.51" x2="267.1" y2="44.51"/><line class="cls-1" x1="281.98" y1="42.16" x2="281.98" y2="39.19"/><line class="cls-1" x1="279.39" y1="42.79" x2="279.39" y2="40.13"/><line class="cls-1" x1="278.85" y1="43.26" x2="278.85" y2="40.36"/><line class="cls-1" x1="281.98" y1="36.06" x2="281.98" y2="36.21"/><polyline class="cls-1" points="292.08 98.46 290.12 98.46 290.12 96.5 292.47 96.5"/><polyline class="cls-1" points="270.94 100.18 270.94 96.97 265.07 96.97"/><line class="cls-1" x1="129.38" y1="6.93" x2="129.38" y2="4.97"/><line class="cls-1" x1="129.38" y1="6.93" x2="106.05" y2="6.93"/><line class="cls-1" x1="129.22" y1="5.83" x2="118.5" y2="5.83"/><line class="cls-1" x1="129.38" y1="4.97" x2="106.05" y2="4.97"/><polyline class="cls-1" points="117.56 4.97 118.42 4.97 118.42 6.93"/><line class="cls-1" x1="116.62" y1="4.97" x2="117.56" y2="4.97"/><line class="cls-1" x1="106.05" y1="6.93" x2="106.05" y2="5.05"/><polyline class="cls-1" points="129.38 4.97 131.34 4.97 131.34 0.98"/><line class="cls-1" x1="75.51" y1="4.74" x2="71.6" y2="4.74"/><polyline class="cls-1" points="71.6 8.57 75.51 8.57 75.51 4.74"/><line class="cls-1" x1="71.6" y1="4.74" x2="71.6" y2="8.57"/><line class="cls-1" x1="75.51" y1="4.74" x2="98.22" y2="4.74"/><line class="cls-1" x1="116.62" y1="5.91" x2="106.05" y2="5.91"/><polyline class="cls-1" points="129.38 6.93 137.21 6.93 137.21 4.97 160.62 4.97"/><line class="cls-1" x1="166.49" y1="0.98" x2="166.49" y2="4.74"/><line class="cls-1" x1="104.09" y1="0.98" x2="131.34" y2="0.98"/><line class="cls-1" x1="45.06" y1="0.98" x2="72.15" y2="0.98"/><line class="cls-1" x1="131.34" y1="0.98" x2="166.49" y2="0.98"/><polyline class="cls-1" points="166.49 4.74 168.45 4.74 168.45 6.7 160.62 6.7 160.62 4.97"/><line class="cls-1" x1="191.78" y1="4.74" x2="193.74" y2="4.74"/><line class="cls-1" x1="179.02" y1="4.74" x2="179.96" y2="4.74"/><line class="cls-1" x1="179.02" y1="6.7" x2="179.02" y2="4.74"/><line class="cls-1" x1="180.98" y1="6.7" x2="179.02" y2="6.7"/><line class="cls-1" x1="180.98" y1="4.74" x2="180.98" y2="6.7"/><line class="cls-1" x1="179.96" y1="4.74" x2="180.98" y2="4.74"/><line class="cls-1" x1="191.63" y1="5.68" x2="180.98" y2="5.68"/><line class="cls-1" x1="191.78" y1="6.7" x2="191.78" y2="4.74"/><line class="cls-1" x1="191.78" y1="4.74" x2="168.45" y2="4.74"/><line class="cls-1" x1="191.78" y1="6.7" x2="168.45" y2="6.7"/><line class="cls-1" x1="179.02" y1="5.76" x2="168.45" y2="5.76"/><line class="cls-1" x1="223.1" y1="6.54" x2="223.1" y2="4.74"/><line class="cls-1" x1="230.85" y1="6.54" x2="223.1" y2="6.54"/><line class="cls-1" x1="230.85" y1="4.58" x2="230.85" y2="6.54"/><line class="cls-1" x1="228.89" y1="4.58" x2="230.85" y2="4.58"/><line class="cls-1" x1="199.61" y1="4.74" x2="223.1" y2="4.74"/><line class="cls-1" x1="199.61" y1="6.7" x2="199.61" y2="4.74"/><line class="cls-1" x1="191.78" y1="6.7" x2="199.61" y2="6.7"/><line class="cls-1" x1="193.74" y1="4.74" x2="193.74" y2="0.98"/><line class="cls-1" x1="191.78" y1="4.74" x2="193.74" y2="4.74"/><line class="cls-1" x1="191.78" y1="6.7" x2="191.78" y2="4.74"/><polyline class="cls-1" points="254.34 6.54 254.34 4.58 256.22 4.58"/><line class="cls-1" x1="254.34" y1="6.54" x2="262.09" y2="6.54"/><line class="cls-1" x1="241.42" y1="5.52" x2="230.85" y2="5.52"/><line class="cls-1" x1="254.34" y1="6.54" x2="230.85" y2="6.54"/><line class="cls-1" x1="254.34" y1="4.58" x2="230.85" y2="4.58"/><line class="cls-1" x1="254.34" y1="6.54" x2="254.34" y2="4.58"/><line class="cls-1" x1="254.11" y1="5.52" x2="243.38" y2="5.52"/><polyline class="cls-1" points="242.44 4.58 243.38 4.58 243.38 6.54 241.42 6.54 241.42 4.58 242.44 4.58"/><polyline class="cls-1" points="254.34 4.58 256.22 4.58 256.22 1.14"/><line class="cls-1" x1="230.85" y1="4.58" x2="230.85" y2="6.54"/><line class="cls-1" x1="267.34" y1="38.95" x2="273.44" y2="38.95"/><line class="cls-1" x1="278.92" y1="41.85" x2="274.85" y2="41.85"/><line class="cls-1" x1="344.77" y1="92.59" x2="344.77" y2="93.99"/><line class="cls-1" x1="92.35" y1="0.04" x2="301" y2="0.04"/><line class="cls-1" x1="300.22" y1="90.55" x2="300.22" y2="0.98"/><line class="cls-1" x1="301" y1="0.04" x2="301" y2="89.53"/><line class="cls-1" x1="262.09" y1="6.54" x2="296.38" y2="6.54"/><line class="cls-1" x1="166.49" y1="0.98" x2="193.74" y2="0.98"/><line class="cls-1" x1="228.89" y1="0.98" x2="228.89" y2="4.58"/><line class="cls-1" x1="314.31" y1="89.53" x2="301" y2="89.53"/><line class="cls-2" x1="355.42" y1="130.4" x2="383.45" y2="130.4"/><polyline class="cls-1" points="6.61 56.73 6.61 286.84 108.16 286.84 108.16 253.01"/><polyline class="cls-1" points="438.8 93.92 439.43 94 439.43 98.46 437.55 98.46"/><polyline class="cls-1" points="407.56 94 407.17 94 407.17 98.46 409.05 98.46"/><polyline class="cls-1" points="455.48 94 453.6 94 453.6 98.46"/><line class="cls-1" x1="453.6" y1="98.46" x2="455.48" y2="98.46"/><line class="cls-1" x1="455.48" y1="98.46" x2="455.48" y2="93.99"/><polyline class="cls-1" points="393 94 391.12 94 391.12 98.46"/><line class="cls-1" x1="391.12" y1="98.46" x2="393" y2="98.46"/><line class="cls-1" x1="393" y1="98.46" x2="393" y2="93.99"/><line class="cls-1" x1="375.07" y1="98.46" x2="346.18" y2="98.46"/><polyline class="cls-1" points="376.95 94 376.95 98.46 375.07 98.46"/><polyline class="cls-1" points="344.77 92.58 344.77 94 344.3 94 344.3 98.46 346.18 98.46"/><line class="cls-1" x1="346.65" y1="96.97" x2="346.26" y2="96.97"/><line class="cls-1" x1="292.08" y1="98.46" x2="314.24" y2="98.46"/><line class="cls-1" x1="314.24" y1="93.92" x2="314.24" y2="98.46"/><polyline class="cls-1" points="328.33 93.92 330.21 93.92 330.21 98.38"/><line class="cls-1" x1="330.21" y1="98.38" x2="328.33" y2="98.38"/><line class="cls-1" x1="328.33" y1="98.38" x2="328.33" y2="93.92"/><line class="cls-1" x1="314.24" y1="93.92" x2="313.61" y2="93.92"/><line class="cls-1" x1="314.24" y1="98.46" x2="344.3" y2="98.46"/><line class="cls-1" x1="282.53" y1="65.34" x2="278.85" y2="65.34"/><line class="cls-1" x1="228.89" y1="0.98" x2="300.22" y2="0.98"/><line class="cls-1" x1="228.89" y1="0.98" x2="193.74" y2="0.98"/><polyline class="cls-1" points="180.98 4.74 179.02 4.74 179.02 6.7 180.98 6.7 180.98 4.74"/><polyline class="cls-1" points="166.49 0.98 166.49 4.74 168.45 4.74 168.45 6.7"/><polyline class="cls-1" points="116.62 4.97 118.42 4.97 118.42 6.93"/><line class="cls-1" x1="116.62" y1="4.97" x2="116.62" y2="6.93"/><line class="cls-1" x1="118.42" y1="6.93" x2="116.62" y2="6.93"/><polyline class="cls-1" points="57.51 4.74 59.46 4.74 59.46 6.7 57.51 6.7 57.51 4.74"/><line class="cls-1" x1="0.04" y1="132.36" x2="0.04" y2="160.31"/><polyline class="cls-1" points="15.38 187.64 15.38 198.75 15.38 211.83"/><line class="cls-1" x1="7.55" y1="187.64" x2="7.55" y2="213.08"/><polyline class="cls-2" points="121.47 244.24 123.35 244.24 123.35 248.71 122.57 248.71"/><line class="cls-2" x1="137.6" y1="244.24" x2="139.48" y2="244.24"/><polyline class="cls-2" points="139.48 244.24 139.48 248.71 137.6 248.71 137.6 244.24"/><polyline class="cls-2" points="185.6 244.24 186.38 244.24 186.38 248.71 185.6 248.71"/><polyline class="cls-2" points="155.61 244.24 154.28 244.24 153.73 244.24 153.73 248.71 154.28 248.71"/><line class="cls-2" x1="200.55" y1="244.24" x2="202.43" y2="244.24"/><polyline class="cls-2" points="202.43 244.24 202.43 248.71 200.55 248.71 200.55 244.24"/><polyline class="cls-2" points="248.47 248.71 249.33 248.71 249.33 244.24"/><polyline class="cls-2" points="217.23 248.78 216.6 248.71 216.6 244.24"/><line class="cls-2" x1="263.5" y1="244.24" x2="265.38" y2="244.24"/><polyline class="cls-2" points="265.38 244.24 265.38 248.71 263.5 248.71 263.5 244.24"/><polyline class="cls-2" points="280.18 248.71 279.55 248.71 279.55 244.24"/><polyline class="cls-2" points="311.42 248.78 312.2 248.71 312.2 244.24"/><line class="cls-2" x1="328.25" y1="244.24" x2="326.37" y2="244.24"/><polyline class="cls-2" points="326.37 244.24 326.37 248.71 328.25 248.71 328.25 244.24"/><polyline class="cls-2" points="374.29 248.71 375.15 248.71 375.15 244.17"/><polyline class="cls-2" points="343.05 248.71 342.42 248.71 342.42 244.24"/><line class="cls-2" x1="391.28" y1="244.24" x2="389.4" y2="244.24"/><polyline class="cls-2" points="389.4 244.24 389.4 248.71 391.28 248.71 391.28 244.24"/><polyline class="cls-2" points="437.24 248.71 438.02 248.71 438.02 244.24"/><polyline class="cls-2" points="406 248.71 405.37 248.71 405.37 244.24"/><line class="cls-2" x1="452.27" y1="244.24" x2="454.15" y2="244.24"/><polyline class="cls-2" points="454.15 244.24 454.15 248.71 452.27 248.71 452.27 244.24"/><polyline class="cls-2" points="500.19 248.71 500.97 248.71 500.97 244.24"/><polyline class="cls-2" points="468.95 248.71 468.32 248.71 468.32 244.24"/><line class="cls-2" x1="517.1" y1="244.24" x2="515.22" y2="244.24"/><polyline class="cls-2" points="515.22 244.24 515.22 248.71 517.1 248.71 517.1 244.24"/><polyline class="cls-2" points="531.9 248.71 531.27 248.71 531.27 244.24"/><polyline class="cls-1" points="563.06 248.71 563.92 248.71 563.92 244.24"/><line class="cls-1" x1="580.05" y1="244.24" x2="578.17" y2="244.24"/><polyline class="cls-1" points="578.17 244.24 578.17 248.71 580.05 248.71 580.05 244.24"/><line class="cls-1" x1="576.6" y1="132.12" x2="550.69" y2="132.12"/><line class="cls-2" x1="236.1" y1="132.2" x2="292.47" y2="132.2"/><line class="cls-2" x1="100.41" y1="130.4" x2="195.23" y2="130.48"/><line class="cls-2" x1="166.65" y1="132.2" x2="107.14" y2="132.2"/><polyline class="cls-2" points="173.15 132.2 195.23 132.2 195.23 130.48"/><line class="cls-2" x1="206.97" y1="132.2" x2="206.97" y2="130.4"/><line class="cls-2" x1="229.29" y1="132.2" x2="206.97" y2="132.2"/><line class="cls-2" x1="207.05" y1="130.4" x2="209.24" y2="130.4"/><line class="cls-1" x1="13.42" y1="185.68" x2="13.42" y2="187.64"/><line class="cls-2" x1="99.94" y1="175.27" x2="105.89" y2="175.27"/><polyline class="cls-2" points="101.27 184.74 101.27 176.83 105.81 176.83"/><line class="cls-2" x1="101.35" y1="186.93" x2="105.58" y2="186.93"/><line class="cls-2" x1="101.35" y1="188.89" x2="105.81" y2="188.89"/><line class="cls-2" x1="101.27" y1="186.93" x2="101.27" y2="184.74"/><line class="cls-2" x1="105.81" y1="186.62" x2="105.81" y2="176.83"/><line class="cls-1" x1="15.38" y1="159.14" x2="15.38" y2="136.82"/><line class="cls-1" x1="11.47" y1="120.07" x2="11.47" y2="119.13"/><line class="cls-1" x1="13.42" y1="120.07" x2="11.47" y2="120.07"/><line class="cls-1" x1="13.42" y1="118.11" x2="13.42" y2="120.07"/><line class="cls-1" x1="11.47" y1="118.11" x2="13.42" y2="118.11"/><line class="cls-1" x1="11.47" y1="119.13" x2="11.47" y2="118.11"/><line class="cls-1" x1="13.42" y1="107.38" x2="13.42" y2="130.87"/><line class="cls-1" x1="12.41" y1="120.07" x2="12.41" y2="130.87"/><line class="cls-1" x1="11.47" y1="107.38" x2="11.47" y2="130.87"/><line class="cls-1" x1="12.41" y1="107.38" x2="12.41" y2="118.11"/><line class="cls-1" x1="13.42" y1="107.38" x2="11.47" y2="107.38"/><line class="cls-2" x1="487.82" y1="137.53" x2="469.26" y2="137.53"/><line class="cls-2" x1="418.21" y1="132.05" x2="418.21" y2="137.29"/><line class="cls-2" x1="425.02" y1="137.29" x2="418.21" y2="137.29"/><polyline class="cls-2" points="469.26 132.13 460.57 132.13 460.57 130.32"/><line class="cls-2" x1="446.87" y1="132.12" x2="446.87" y2="130.32"/><line class="cls-2" x1="460.57" y1="130.32" x2="508.72" y2="130.32"/><line class="cls-2" x1="446.87" y1="132.12" x2="425.02" y2="132.12"/><line class="cls-2" x1="359.65" y1="130.4" x2="383.45" y2="130.4"/><polyline class="cls-2" points="355.42 130.4 335.22 130.4 335.22 132.2 355.42 132.2"/><line class="cls-1" x1="376.95" y1="93.99" x2="376.4" y2="93.99"/><polyline class="cls-2" points="321.67 130.4 321.67 132.2 299.13 132.2"/><line class="cls-2" x1="321.67" y1="130.4" x2="259.43" y2="130.4"/><line class="cls-2" x1="245.88" y1="130.4" x2="259.43" y2="130.4"/><polyline class="cls-1" points="15.38 136.82 15.38 132.36 13.43 132.36"/><line class="cls-1" x1="13.42" y1="130.87" x2="13.42" y2="132.36"/><line class="cls-1" x1="11.47" y1="130.87" x2="11.47" y2="132.36"/><line class="cls-1" x1="13.42" y1="187.64" x2="15.38" y2="187.64"/><line class="cls-2" x1="469.26" y1="132.12" x2="469.26" y2="137.53"/><line class="cls-1" x1="108.16" y1="286.84" x2="584.68" y2="286.84"/><line class="cls-1" x1="77.24" y1="285.9" x2="101.12" y2="285.9"/><line class="cls-1" x1="71.13" y1="278.07" x2="44.19" y2="278.07"/><line class="cls-1" x1="75.36" y1="286.45" x2="75.98" y2="286.45"/><line class="cls-1" x1="75.36" y1="286.45" x2="75.36" y2="281.98"/><line class="cls-1" x1="48.42" y1="281.98" x2="50.3" y2="281.98"/><line class="cls-1" x1="50.3" y1="281.98" x2="50.3" y2="286.45"/><line class="cls-1" x1="50.3" y1="286.45" x2="48.42" y2="286.45"/><line class="cls-1" x1="48.42" y1="286.45" x2="48.42" y2="281.98"/><line class="cls-1" x1="64.63" y1="286.45" x2="64.63" y2="281.98"/><line class="cls-1" x1="66.51" y1="286.45" x2="64.63" y2="286.45"/><line class="cls-1" x1="66.51" y1="281.98" x2="66.51" y2="286.45"/><line class="cls-1" x1="64.63" y1="281.98" x2="66.51" y2="281.98"/><line class="cls-1" x1="50.3" y1="285.11" x2="64.63" y2="285.11"/><line class="cls-1" x1="50.3" y1="284.41" x2="64.63" y2="284.41"/><line class="cls-1" x1="50.3" y1="283.7" x2="64.63" y2="283.7"/><line class="cls-1" x1="64.63" y1="281.98" x2="66.51" y2="281.98"/><line class="cls-1" x1="66.51" y1="281.98" x2="66.51" y2="286.45"/><line class="cls-1" x1="66.51" y1="286.45" x2="64.63" y2="286.45"/><line class="cls-1" x1="64.63" y1="286.45" x2="64.63" y2="281.98"/><line class="cls-1" x1="39.65" y1="281.98" x2="75.36" y2="281.98"/><line class="cls-1" x1="40.59" y1="283.7" x2="48.42" y2="283.7"/><line class="cls-1" x1="39.73" y1="285.11" x2="48.42" y2="285.11"/><line class="cls-1" x1="66.51" y1="283.7" x2="75.28" y2="283.7"/><line class="cls-1" x1="66.51" y1="285.11" x2="75.28" y2="285.11"/><line class="cls-1" x1="66.51" y1="284.41" x2="75.28" y2="284.41"/><line class="cls-1" x1="39.73" y1="284.41" x2="48.42" y2="284.41"/><line class="cls-1" x1="40.59" y1="283.7" x2="39.73" y2="283.7"/><line class="cls-1" x1="270.94" y1="96.97" x2="270.94" y2="87.42"/><polyline class="cls-1" points="280.57 96.97 280.57 96.81 280.57 96.66 280.57 96.5 280.57 96.34 280.49 96.11 280.49 95.95 280.49 95.8 280.49 95.64 280.41 95.48 280.41 95.33 280.41 95.17 280.33 95.01 280.33 94.86 280.26 94.62 280.26 94.46 280.18 94.31 280.18 94.15 280.1 94 280.02 93.84 279.94 93.68 279.94 93.53 279.86 93.37 279.79 93.21 279.71 93.06 279.63 92.9"/><polyline class="cls-1" points="279.63 92.9 279.55 92.74 279.55 92.58 279.47 92.51 279.32 92.35 279.24 92.19 279.16 92.04 279.08 91.88 279 91.72 278.93 91.65 278.85 91.49 278.69 91.33 278.61 91.18 278.53 91.1 278.45 90.94 278.3 90.78 278.22 90.71 278.06 90.55 277.99 90.47 277.83 90.31 277.75 90.16 277.59 90.08 277.51 89.92 277.36 89.84 277.28 89.77 277.12 89.61 276.97 89.53 276.89 89.45 276.73 89.3 276.58 89.22 276.5 89.14 276.34 88.98 276.18 88.91 276.03 88.83 275.87 88.75 275.79 88.67 275.64 88.59 275.48 88.51 275.32 88.44 275.17 88.36 275.01 88.28 274.85 88.2 274.7 88.12 274.54 88.04 274.38 88.04 274.23 87.97 274.07 87.89 273.91 87.89 273.76 87.81 273.6 87.73 273.44 87.73 273.29 87.65 273.13 87.65 272.97 87.57 272.82 87.57 272.66 87.5 272.43 87.5 272.27 87.5 272.11 87.42 271.96 87.42 271.8 87.42 271.64 87.42 271.49 87.42 271.33 87.42 271.1 87.42 270.94 87.42"/><polyline class="cls-1" points="290.12 87.42 289.96 87.42 289.81 87.42 289.65 87.42 289.5 87.42 289.34 87.42 289.18 87.42 289.02 87.42 288.79 87.5 288.63 87.5 288.48 87.5 288.32 87.57 288.16 87.57 288.01 87.65 287.85 87.65 287.69 87.73 287.54 87.73 287.38 87.81 287.22 87.89 287.07 87.89 286.91 87.97 286.75 88.04 286.6 88.04 286.44 88.12 286.28 88.2 286.13 88.28 285.97 88.36 285.81 88.44 285.66 88.51 285.5 88.59 285.35 88.67 285.19 88.75 285.11 88.83 284.95 88.91 284.8 88.98 284.64 89.14 284.48 89.22 284.4 89.3 284.25 89.45 284.09 89.53 284.01 89.61 283.86 89.77 283.7 89.84 283.62 89.92 283.47 90.08 283.39 90.16 283.23 90.31 283.15 90.47 283 90.55 282.92 90.71 282.84 90.78 282.68 90.94 282.61 91.1 282.53 91.18 282.37 91.33 282.29 91.49 282.21 91.65 282.13 91.72 282.06 91.88 281.9 92.04 281.82 92.19 281.74 92.35 281.67 92.51 281.59 92.58 281.51 92.74 281.43 92.9 281.35 93.06 281.35 93.21 281.27 93.37 281.19 93.53 281.12 93.68 281.12 93.84 281.04 94 280.96 94.15 280.96 94.31 280.88 94.46 280.88 94.62 280.8 94.86 280.8 95.01 280.73 95.17 280.73 95.33 280.65 95.48 280.65 95.64 280.65 95.8 280.65 95.95 280.57 96.11 280.57 96.34 280.57 96.5 280.57 96.66 280.57 96.81 280.57 96.97"/><line class="cls-1" x1="290.12" y1="96.97" x2="290.12" y2="87.42"/><line class="cls-2" x1="100.41" y1="126.33" x2="100.41" y2="130.4"/><line class="cls-2" x1="101.98" y1="126.33" x2="101.98" y2="130.4"/><line class="cls-2" x1="101.98" y1="126.33" x2="100.41" y2="126.33"/><line class="cls-1" x1="100.8" y1="89.92" x2="104.64" y2="89.92"/><line class="cls-1" x1="101.27" y1="89.38" x2="105.19" y2="89.38"/><line class="cls-1" x1="104.64" y1="89.92" x2="104.64" y2="95.33"/><line class="cls-1" x1="105.19" y1="89.38" x2="105.19" y2="92.35"/><line class="cls-1" x1="104.64" y1="95.33" x2="119.75" y2="95.33"/><line class="cls-1" x1="104.64" y1="96.73" x2="121.24" y2="96.73"/><line class="cls-1" x1="119.75" y1="95.33" x2="119.75" y2="92.82"/><line class="cls-1" x1="121.24" y1="96.73" x2="121.24" y2="94.31"/><line class="cls-1" x1="259.04" y1="92.82" x2="259.04" y2="8.65"/><line class="cls-1" x1="270.94" y1="100.18" x2="248.94" y2="100.18"/><polyline class="cls-1" points="99 101.43 100.65 101.43 100.65 100.18"/><line class="cls-1" x1="99" y1="101.43" x2="99" y2="88.59"/><line class="cls-1" x1="104.64" y1="98.69" x2="104.64" y2="96.73"/><line class="cls-1" x1="99" y1="76.85" x2="100.8" y2="76.85"/><polyline class="cls-1" points="99 76.85 99 70.27 100.8 70.27"/><line class="cls-1" x1="99" y1="58.61" x2="100.8" y2="58.61"/><line class="cls-1" x1="99" y1="58.61" x2="99" y2="53.67"/><line class="cls-1" x1="100.8" y1="70.27" x2="100.8" y2="76.85"/><line class="cls-1" x1="100.8" y1="58.61" x2="100.8" y2="55.47"/><line class="cls-1" x1="101.27" y1="89.38" x2="101.27" y2="55.94"/><line class="cls-1" x1="100.8" y1="55.47" x2="135.49" y2="55.47"/><line class="cls-1" x1="101.27" y1="55.94" x2="134.94" y2="55.94"/><line class="cls-1" x1="99" y1="53.67" x2="137.37" y2="53.67"/><line class="cls-1" x1="135.49" y1="55.47" x2="135.49" y2="57.27"/><line class="cls-1" x1="135.49" y1="70.19" x2="135.49" y2="92.82"/><line class="cls-1" x1="134.94" y1="55.94" x2="134.94" y2="57.27"/><line class="cls-1" x1="134.94" y1="70.19" x2="134.94" y2="92.35"/><line class="cls-1" x1="135.49" y1="92.82" x2="119.75" y2="92.82"/><line class="cls-1" x1="134.94" y1="92.35" x2="105.19" y2="92.35"/><line class="cls-1" x1="137.37" y1="53.67" x2="137.37" y2="57.27"/><line class="cls-1" x1="137.37" y1="70.19" x2="137.37" y2="92.82"/><line class="cls-1" x1="100.8" y1="88.59" x2="100.8" y2="89.92"/><line class="cls-1" x1="137.37" y1="92.82" x2="169.55" y2="92.82"/><line class="cls-1" x1="121.24" y1="94.31" x2="168.14" y2="94.31"/><line class="cls-1" x1="169.55" y1="92.82" x2="169.55" y2="98.38"/><line class="cls-1" x1="168.14" y1="94.31" x2="168.14" y2="98.69"/><line class="cls-1" x1="100.65" y1="100.18" x2="182.39" y2="100.18"/><line class="cls-1" x1="104.64" y1="98.69" x2="168.14" y2="98.69"/><line class="cls-1" x1="130.32" y1="98.69" x2="130.32" y2="100.18"/><line class="cls-1" x1="138.15" y1="98.69" x2="138.15" y2="100.18"/><line class="cls-1" x1="169.55" y1="98.38" x2="182.39" y2="98.38"/><polyline class="cls-1" points="224.9 92.82 224.9 98.38 211.28 98.38"/><line class="cls-1" x1="224.9" y1="92.82" x2="236.02" y2="92.82"/><line class="cls-1" x1="247.68" y1="92.82" x2="259.04" y2="92.82"/><polyline class="cls-1" points="248.94 100.18 248.94 94.62 247.69 94.62 247.69 92.82"/><polyline class="cls-1" points="234.77 100.18 234.77 94.62 236.02 94.62 236.02 92.82"/><line class="cls-1" x1="234.77" y1="100.18" x2="211.28" y2="100.18"/><line class="cls-1" x1="182.39" y1="98.38" x2="182.39" y2="100.18"/><polyline class="cls-1" points="183.01 98.3 183.01 98.14 183.09 97.91 183.09 97.67 183.09 97.52 183.09 97.28 183.09 97.13 183.17 96.89 183.17 96.66 183.17 96.5 183.25 96.27 183.25 96.11 183.33 95.87 183.33 95.72 183.4 95.48 183.48 95.33 183.48 95.09 183.56 94.93 183.64 94.7 183.72 94.54 183.72 94.31 183.8 94.15 183.87 93.92 183.95 93.76 184.03 93.53 184.11 93.37 184.26 93.21 184.34 92.98 184.42 92.82 184.5 92.66 184.58 92.43 184.74 92.27 184.81 92.12 184.97 91.96 185.05 91.8 185.13 91.57 185.28 91.41 185.44 91.25 185.52 91.1 185.68 90.94 185.75 90.78 185.91 90.63 186.07 90.47 186.22 90.31 186.3 90.16 186.46 90 186.61 89.92 186.69 89.77 186.85 89.61 187.01 89.45 187.16 89.38 187.32 89.22 187.48 89.06 187.63 88.98 187.79 88.83 187.94 88.75 188.1 88.59 188.34 88.51 188.49 88.36 188.65 88.28 188.81 88.2 189.04 88.04 189.2 87.97 189.35 87.89 189.59 87.81 189.75 87.73 189.9 87.65 190.14 87.5 190.29 87.42 190.45 87.42 190.69 87.34 190.84 87.26 191.08 87.18 191.23 87.11 191.47 87.03 191.63 87.03 191.86 86.95 192.02 86.87 192.25 86.87 192.49 86.79 192.64 86.79 192.88 86.71 193.03 86.71 193.27 86.71 193.43 86.64 193.66 86.64 193.9 86.64 194.05 86.64 194.29 86.64 194.52 86.64 194.68 86.64"/><polyline class="cls-1" points="134.78 69.57 134.63 69.57 134.39 69.57 134.16 69.57 134 69.49 133.76 69.49 133.61 69.49 133.37 69.49 133.14 69.41 132.98 69.41 132.75 69.41 132.59 69.33 132.35 69.33 132.2 69.25 131.96 69.17 131.81 69.17 131.57 69.1 131.42 69.02 131.18 68.94 131.02 68.94 130.79 68.86 130.63 68.78 130.4 68.7 130.24 68.63 130.01 68.55 129.85 68.47 129.69 68.39 129.46 68.23 129.3 68.16 129.15 68.08 128.91 68 128.75 67.84 128.6 67.77 128.44 67.69 128.28 67.61 128.05 67.53 127.89 67.37 127.74 67.3 127.58 67.14 127.42 66.98 127.27 66.9 127.11 66.75 126.95 66.59 126.8 66.51 126.64 66.36 126.48 66.2 126.41 66.04 126.25 65.89 126.09 65.73 125.94 65.57 125.86 65.42 125.7 65.26 125.54 65.1 125.47 64.95 125.31 64.79 125.23 64.63 125.07 64.48 125 64.32 124.84 64.09 124.76 63.93 124.68 63.77 124.53 63.62 124.45 63.38 124.37 63.23 124.29 63.07 124.21 62.83 124.13 62.68 124.06 62.52 123.98 62.28 123.9 62.13 123.82 61.89 123.74 61.74 123.67 61.5 123.59 61.34 123.51 61.11 123.51 60.95 123.43 60.72 123.35 60.56 123.35 60.33 123.27 60.17 123.27 59.94 123.19 59.78 123.19 59.55 123.19 59.31 123.12 59.15 123.12 58.92 123.12 58.76 123.12 58.53 123.12 58.29 123.12 58.13 123.12 57.9"/><line class="cls-1" x1="137.37" y1="57.27" x2="134.94" y2="57.27"/><line class="cls-1" x1="137.99" y1="85.7" x2="144.49" y2="92.19"/><line class="cls-1" x1="144.49" y1="85.7" x2="137.99" y2="92.19"/><path class="cls-1" d="M141.52,88.91a.31.31,0,1,0-.63,0,.31.31,0,0,0,.63,0"/><polyline class="cls-1" points="236.02 94.62 236.02 94.86 236.02 95.01 236.02 95.25 236.02 95.4 236.02 95.64 236.02 95.87 236.1 96.03 236.1 96.27 236.1 96.42 236.18 96.66 236.18 96.89 236.25 97.05 236.25 97.28 236.33 97.44 236.41 97.67 236.41 97.83 236.49 98.07 236.57 98.22 236.65 98.46 236.72 98.61 236.72 98.85 236.8 99.01 236.88 99.16 236.96 99.4 237.12 99.55 237.19 99.79 237.27 99.94 237.35 100.1 237.43 100.34 237.59 100.49 237.66 100.65 237.74 100.81 237.9 101.04 237.98 101.2 238.13 101.35 238.21 101.51 238.37 101.67 238.45 101.82 238.6 101.98 238.76 102.14 238.84 102.29 238.99 102.45 239.15 102.61 239.31 102.76 239.38 102.92 239.54 103.08 239.7 103.16 239.85 103.31 240.01 103.47 240.17 103.63 240.32 103.7 240.48 103.86 240.64 104.02 240.79 104.09 240.95 104.25 241.19 104.33 241.34 104.49 241.5 104.56 241.66 104.64 241.81 104.8 242.05 104.88 242.2 104.96 242.36 105.03 242.6 105.19 242.75 105.27 242.91 105.35 243.14 105.43 243.3 105.5 243.53 105.58 243.69 105.66 243.93 105.74 244.08 105.74 244.24 105.82 244.47 105.9 244.71 105.97 244.87 105.97 245.1 106.05 245.26 106.05 245.49 106.13 245.65 106.13 245.88 106.21 246.04 106.21 246.28 106.29 246.51 106.29 246.67 106.29 246.9 106.29 247.06 106.29 247.29 106.36 247.53 106.36 247.69 106.36"/><line class="cls-1" x1="137.37" y1="70.19" x2="134.94" y2="70.19"/><polyline class="cls-1" points="96.5 83.58 96.26 83.58 96.03 83.66 95.87 83.66 95.64 83.66 95.48 83.66 95.24 83.74 95.01 83.74 94.85 83.82 94.62 83.82 94.46 83.89 94.23 83.89 94.07 83.97 93.83 84.05 93.68 84.05 93.44 84.13 93.29 84.21 93.05 84.29 92.89 84.36 92.66 84.44 92.5 84.52 92.27 84.6 92.11 84.68 91.95 84.76 91.72 84.83 91.56 84.91 91.41 85.07 91.17 85.15 91.02 85.23 90.86 85.38 90.7 85.46 90.55 85.54 90.31 85.69 90.15 85.77 90 85.93 89.84 86.09 89.68 86.17 89.53 86.32 89.37 86.48 89.22 86.56 89.06 86.71 88.9 86.87 88.75 87.03 88.67 87.18 88.51 87.26 88.35 87.42 88.2 87.57 88.04 87.73 87.96 87.89 87.81 88.04 87.73 88.28 87.57 88.44 87.49 88.59 87.34 88.75 87.26 88.91 87.1 89.06 87.02 89.3 86.87 89.45 86.79 89.61 86.71 89.77 86.63 90 86.55 90.16 86.4 90.31 86.32 90.55 86.24 90.71 86.16 90.94 86.08 91.1 86 91.25 85.93 91.49 85.93 91.65 85.85 91.88 85.77 92.04 85.69 92.27 85.69 92.43 85.61 92.66 85.61 92.9 85.53 93.06 85.53 93.29 85.46 93.45 85.46 93.68 85.38 93.84 85.38 94.07 85.38 94.31 85.38 94.46 85.3 94.7 85.3 94.93 85.3 95.09 85.3 95.33"/><polyline class="cls-1" points="97.04 95.33 96.5 95.33 96.5 83.58 97.04 83.58 97.04 95.33"/><polyline class="cls-1" points="97.04 97.2 97.67 97.2 97.67 95.33 97.04 95.33 97.04 97.2"/><polyline class="cls-1" points="96.81 96.5 97.04 96.5 97.04 95.87 96.81 95.87 96.81 96.5"/><polyline class="cls-1" points="85.3 96.5 85.53 96.5 85.53 95.87 85.3 95.87 85.3 96.5"/><polyline class="cls-1" points="84.67 97.2 85.3 97.2 85.3 95.33 84.67 95.33 84.67 97.2"/><line class="cls-1" x1="138.15" y1="98.69" x2="138.15" y2="100.18"/><line class="cls-1" x1="130.32" y1="98.69" x2="130.32" y2="100.18"/><polyline class="cls-1" points="135.49 70.19 134.94 70.19 134.94 92.35 105.19 92.35 105.19 89.38 101.27 89.38 101.27 55.94 134.94 55.94 134.94 57.27 135.49 57.27"/><polyline class="cls-1" points="104.64 98.22 100.72 98.22 100.72 94.31 104.64 94.31"/><polyline class="cls-1" points="104.64 95.33 119.75 95.33 119.75 92.82 135.49 92.82 135.49 70.19 137.37 70.19 137.37 92.82 169.55 92.82 169.55 98.38 182.39 98.38 182.39 100.18 100.65 100.18 100.65 101.43 99 101.43 99 8.65 100.65 8.65 100.65 53.67 137.37 53.67 137.37 57.27 135.49 57.27 135.49 55.47 100.8 55.47 100.8 89.92 104.64 89.92 104.64 98.69 168.14 98.69 168.14 94.31 121.24 94.31 121.24 96.73 104.64 96.73"/><polyline class="cls-1" points="198.28 98.38 198.28 8.65 196.64 8.65 196.64 98.38"/><polyline class="cls-1" points="236.02 92.82 236.02 94.62 234.77 94.62 234.77 100.18 195.31 100.18 195.31 98.38 224.9 98.38 224.9 92.82 236.02 92.82"/><polyline class="cls-1" points="265.07 8.65 265.07 96.97 270.94 96.97 270.94 100.18 248.94 100.18 248.94 94.62 247.69 94.62 247.69 92.82 259.04 92.82 259.04 8.65 265.07 8.65"/><polyline class="cls-1" points="99 97.05 97.67 97.05 97.67 95.4 99 95.4 99 97.05"/><polyline class="cls-1" points="15.54 97.05 15.54 95.4 84.67 95.4 84.67 97.05 15.54 97.05"/><polyline class="cls-1" points="135.88 69.57 135.88 69.41 135.41 69.41 135.41 69.57 135.88 69.57"/><polyline class="cls-1" points="137.52 69.57 137.52 70.19 134.78 70.19 134.78 69.57 137.52 69.57"/><line class="cls-1" x1="152.79" y1="88.12" x2="151.69" y2="91.41"/><line class="cls-1" x1="148.95" y1="88.75" x2="150.36" y2="91.41"/><polyline class="cls-1" points="150.99 90.94 150.99 90.94 150.91 90.94 150.83 90.94 150.83 91.02 150.75 91.02 150.68 91.02 150.68 91.1 150.68 91.18 150.6 91.18 150.6 91.25 150.6 91.33 150.6 91.41 150.6 91.49 150.6 91.57 150.68 91.57 150.68 91.65 150.75 91.65 150.75 91.72 150.83 91.72 150.83 91.8 150.91 91.8 150.99 91.8 151.07 91.8 151.15 91.8"/><polyline class="cls-1" points="151.15 91.8 151.15 91.8 151.15 91.72 151.22 91.72 151.3 91.72 151.3 91.65 151.38 91.65 151.38 91.57 151.38 91.49 151.46 91.49 151.46 91.41 151.46 91.33 151.46 91.25 151.38 91.25 151.38 91.18 151.38 91.1 151.3 91.1 151.3 91.02 151.22 91.02 151.22 90.94 151.15 90.94 151.07 90.94 150.99 90.94"/><polyline class="cls-1" points="148.09 92.82 148.09 86.95 153.97 86.95 153.97 92.82"/><line class="cls-1" x1="153.97" y1="92.82" x2="148.09" y2="92.82"/><polyline class="cls-1" points="148.64 87.57 148.64 92.27 153.34 92.27 153.34 87.57 148.64 87.57"/><polyline class="cls-1" points="148.95 87.81 149.5 87.81 149.5 88.44 148.95 88.44 148.95 87.81"/><line class="cls-1" x1="153.89" y1="92.82" x2="154.04" y2="92.82"/><line class="cls-1" x1="153.97" y1="92.74" x2="153.97" y2="92.9"/><line class="cls-1" x1="148.01" y1="92.82" x2="148.17" y2="92.82"/><line class="cls-1" x1="148.09" y1="92.74" x2="148.09" y2="92.9"/><polyline class="cls-1" points="247.69 94.62 247.14 94.62 247.14 106.36 247.69 106.36 247.69 94.62"/><polyline class="cls-1" points="137.37 92.82 145.12 92.82 145.12 92.19 137.37 92.19 137.37 92.82"/><polyline class="cls-1" points="137.99 92.19 144.49 92.19 144.49 85.69 137.99 85.69 137.99 92.19"/><polyline class="cls-1" points="137.37 92.82 145.12 92.82 145.12 84.99 137.37 84.99 137.37 92.82"/><polyline class="cls-1" points="134.78 57.9 134.78 58.45 123.12 58.45 123.12 57.9 134.78 57.9"/><polyline class="cls-1" points="135.88 57.9 135.88 58.06 135.41 58.06 135.41 57.9 135.88 57.9"/><polyline class="cls-1" points="137.52 57.9 137.52 57.27 134.78 57.27 134.78 57.9 137.52 57.9"/><polyline class="cls-1" points="194.68 98.3 194.13 98.3 194.13 86.64 194.68 86.64 194.68 98.3"/><polyline class="cls-1" points="183.01 99.4 183.25 99.4 183.25 98.93 183.01 98.93 183.01 99.4"/><polyline class="cls-1" points="194.68 99.4 194.52 99.4 194.52 98.93 194.68 98.93 194.68 99.4"/><polyline class="cls-1" points="183.01 100.18 182.39 100.18 182.39 98.3 183.01 98.3 183.01 100.18"/><polyline class="cls-1" points="194.68 100.18 195.31 100.18 195.31 98.3 194.68 98.3 194.68 100.18"/><polyline class="cls-1" points="211.28 100.18 211.28 98.38 195.31 98.38 195.31 100.18 211.28 100.18"/><polyline class="cls-1" points="196.64 98.38 198.28 98.38 198.28 8.65 196.64 8.65 196.64 98.38"/><polyline class="cls-1" points="99 97.05 99 95.4 97.67 95.4 97.67 97.05 99 97.05"/><polyline class="cls-1" points="84.67 97.05 84.67 95.4 15.54 95.4 15.54 97.05 84.67 97.05"/><polyline class="cls-1" points="99 53.67 100.65 53.67 100.65 8.65 99 8.65 99 53.67"/><line class="cls-1" x1="134.7" y1="88.67" x2="134.7" y2="88.2"/><line class="cls-1" x1="134.7" y1="74.97" x2="134.7" y2="74.5"/><line class="cls-1" x1="134.86" y1="74.26" x2="135.02" y2="74.26"/><line class="cls-1" x1="134.94" y1="74.19" x2="134.94" y2="74.34"/><line class="cls-1" x1="134.86" y1="88.91" x2="135.02" y2="88.91"/><line class="cls-1" x1="134.94" y1="88.83" x2="134.94" y2="88.98"/><polyline class="cls-1" points="134.24 79.04 134.24 79.04 134.16 79.04 134.16 79.12 134.08 79.12 134.08 79.2 134 79.2 134 79.28 134 79.35 134 79.43 134.08 79.43 134.08 79.51 134.16 79.51 134.16 79.59 134.24 79.59"/><polyline class="cls-1" points="134.24 79.59 134.24 79.59 134.7 79.59"/><line class="cls-1" x1="134.23" y1="79.04" x2="134.7" y2="79.04"/><line class="cls-1" x1="134.86" y1="78.81" x2="135.02" y2="78.81"/><line class="cls-1" x1="134.94" y1="78.73" x2="134.94" y2="78.88"/><polyline class="cls-1" points="134.7 79.75 134.78 79.82 134.94 79.82 134.94 78.81 134.78 78.81 134.7 78.88 134.7 79.75"/><polyline class="cls-1" points="134.7 88.83 134.78 88.91 134.94 88.91 134.94 87.97 134.78 87.97 134.7 88.04 134.7 88.2 134.63 88.2"/><polyline class="cls-1" points="134.47 88.04 134.47 88.04 134.47 88.12 134.55 88.12 134.55 88.2 134.63 88.2"/><line class="cls-1" x1="134.47" y1="88.04" x2="134.47" y2="79.59"/><polyline class="cls-1" points="134.63 74.97 134.63 74.97 134.63 75.05 134.55 75.05 134.47 75.05 134.47 75.13"/><polyline class="cls-1" points="134.47 75.13 134.47 75.13 134.47 75.2"/><polyline class="cls-1" points="134.63 74.97 134.7 74.97 134.7 75.2 134.78 75.28 134.94 75.28 134.94 74.26 134.78 74.26 134.7 74.34 134.7 74.5 134.63 74.5 134.55 74.5 134.47 74.5 134.47 74.58 134.39 74.58 134.31 74.58 134.31 74.66 134.24 74.66 134.16 74.73 134.16 74.81 134.08 74.81 134.08 74.89 134 74.97 134 75.05 134 75.13 134 75.2 134 88.04 134 88.12 134 88.2 134 88.28 134.08 88.28 134.08 88.36 134.08 88.44 134.16 88.44 134.16 88.51 134.24 88.51 134.24 88.59 134.31 88.59 134.39 88.59 134.39 88.67 134.47 88.67 134.55 88.67 134.63 88.67 134.7 88.67"/><line class="cls-1" x1="134.7" y1="88.67" x2="134.7" y2="88.83"/><line class="cls-1" x1="134.47" y1="79.04" x2="134.47" y2="75.2"/><polyline class="cls-1" points="133.53 92.35 133.53 92.35 133.53 92.19 133.45 92.12 133.29 92.12 133.29 92.04 133.29 91.96 133.22 91.96 133.22 91.88 133.22 91.8 133.22 91.72 133.14 91.72 133.14 91.65 133.14 91.57 133.06 91.57 133.06 91.49 132.98 91.49 132.9 91.49 132.9 91.41 132.82 91.41 132.75 91.41 132.67 91.33 132.59 91.33 121.71 91.33 121.63 91.33 121.63 91.41 121.55 91.41 121.47 91.41 121.39 91.41 121.39 91.49 121.32 91.49 121.24 91.57 121.16 91.57 121.16 91.65 121.16 91.72 121.08 91.72 121.08 91.8 121.08 91.88 121.08 91.96 121.08 92.04 121.08 92.12 120.92 92.12 120.85 92.19 120.85 92.35 121.79 92.35 121.79 92.19 121.71 92.12 121.55 92.12 121.55 92.04"/><polyline class="cls-1" points="121.55 92.04 121.55 92.04 121.55 91.96 121.55 91.88 121.63 91.88 121.71 91.88 132.59 91.88 132.67 91.88 132.75 91.88 132.75 91.96 132.75 92.04 132.75 92.12 132.59 92.12 132.51 92.19 132.51 92.35 133.53 92.35"/><line class="cls-1" x1="121.08" y1="92.12" x2="121.55" y2="92.12"/><line class="cls-1" x1="132.75" y1="92.12" x2="133.3" y2="92.12"/><line class="cls-1" x1="133.45" y1="92.35" x2="133.61" y2="92.35"/><line class="cls-1" x1="133.53" y1="92.27" x2="133.53" y2="92.43"/><line class="cls-1" x1="120.77" y1="92.35" x2="120.92" y2="92.35"/><line class="cls-1" x1="120.85" y1="92.27" x2="120.85" y2="92.43"/><path class="cls-1" d="M110.59,91.25a.35.35,0,0,0-.23-.23.25.25,0,0,0-.23.23.21.21,0,0,0,.23.23.25.25,0,0,0,.23-.23"/><path class="cls-1" d="M110,91.25a.35.35,0,0,0-.23-.23.25.25,0,0,0-.23.23.21.21,0,0,0,.23.23.25.25,0,0,0,.23-.23"/><path class="cls-1" d="M111.22,91.25A.35.35,0,0,0,111,91a.25.25,0,0,0-.23.23.21.21,0,0,0,.23.23.25.25,0,0,0,.23-.23"/><polyline class="cls-1" points="108.47 91.72 108.55 91.72 108.71 91.8 108.79 91.8 108.94 91.8 109.1 91.88 109.18 91.88 109.34 91.88 109.49 91.88 109.57 91.96 109.73 91.96 109.89 91.96 109.96 91.96 110.12 91.96 110.2 91.96 110.35 91.96 110.51 91.96 110.59 91.96 110.75 91.96 110.9 91.96 110.98 91.96 111.14 91.96 111.29 91.88 111.37 91.88 111.53 91.88 111.69 91.88 111.76 91.8 111.92 91.8 112 91.8 112.16 91.72 112.31 91.72"/><polyline class="cls-1" points="112 85.93 111.84 85.93 111.76 85.85 111.61 85.85 111.53 85.85 111.37 85.85 111.29 85.77 111.14 85.77 111.06 85.77 110.9 85.77 110.82 85.77 110.67 85.77 110.59 85.77 110.43 85.77 110.35 85.77 110.28 85.77 110.12 85.77 110.04 85.77 109.89 85.77 109.81 85.77 109.65 85.77 109.57 85.77 109.42 85.85 109.34 85.85 109.18 85.85 109.1 85.85 108.94 85.93 108.87 85.93 108.79 85.93"/><polyline class="cls-1" points="113.02 90.78 112.94 87.18 112.94 87.11 112.94 87.03 112.94 86.95 112.94 86.87 112.86 86.87 112.86 86.79 112.86 86.71 112.86 86.64 112.78 86.64 112.78 86.56 112.78 86.48 112.7 86.48 112.7 86.4 112.63 86.4 112.63 86.32 112.55 86.32 112.55 86.24 112.47 86.24 112.47 86.17 112.39 86.17 112.39 86.09 112.31 86.09 112.23 86.09 112.23 86.01 112.16 86.01 112.08 86.01 112.08 85.93 112 85.93"/><line class="cls-1" x1="107.69" y1="90.78" x2="107.77" y2="87.18"/><polyline class="cls-1" points="108.79 85.93 108.79 85.93 108.71 85.93 108.63 86.01 108.55 86.01 108.47 86.01 108.47 86.09 108.4 86.09 108.32 86.17 108.24 86.17 108.24 86.24 108.16 86.24 108.16 86.32 108.08 86.32 108.08 86.4 108.01 86.4 108.01 86.48 108.01 86.56 107.93 86.56 107.93 86.64 107.93 86.71 107.85 86.71 107.85 86.79 107.85 86.87"/><polyline class="cls-1" points="107.85 86.87 107.85 86.87 107.85 86.95 107.77 86.95 107.77 87.03 107.77 87.11 107.77 87.18"/><polyline class="cls-1" points="107.69 90.78 107.69 90.78 107.69 90.86 107.77 90.94 107.77 91.02 107.77 91.1 107.77 91.18 107.85 91.18 107.85 91.25 107.85 91.33 107.93 91.33 107.93 91.41 108.01 91.41 108.01 91.49 108.08 91.49 108.08 91.57 108.16 91.57 108.16 91.65 108.24 91.65 108.32 91.65 108.32 91.72 108.4 91.72 108.47 91.72"/><polyline class="cls-1" points="112.31 91.72 112.31 91.72 112.39 91.72 112.39 91.65 112.47 91.65 112.55 91.65 112.55 91.57 112.63 91.57 112.63 91.49 112.7 91.49 112.78 91.41 112.78 91.33 112.86 91.33 112.86 91.25 112.94 91.25 112.94 91.18 112.94 91.1 112.94 91.02 113.02 91.02 113.02 90.94 113.02 90.86 113.02 90.78"/><line class="cls-1" x1="113.8" y1="92.35" x2="113.8" y2="87.65"/><line class="cls-1" x1="106.91" y1="92.35" x2="106.99" y2="87.65"/><polyline class="cls-1" points="111.76 85.3 111.69 85.3 111.53 85.3 111.45 85.23 111.29 85.23 111.14 85.23 111.06 85.23 110.9 85.23 110.75 85.23 110.67 85.15 110.51 85.15 110.35 85.15 110.28 85.15 110.12 85.15 109.96 85.23 109.89 85.23 109.73 85.23 109.57 85.23 109.49 85.23 109.34 85.23 109.18 85.3 109.1 85.3 108.94 85.3"/><polyline class="cls-1" points="108.47 89.92 108.55 89.92 108.63 90 108.71 90 108.79 90 108.87 90.08 108.94 90.08"/><polyline class="cls-1" points="108.94 90.08 109.02 90.16 109.1 90.16 109.18 90.16 109.26 90.16 109.34 90.24 109.42 90.24 109.49 90.24 109.57 90.24 109.65 90.31 109.73 90.31 109.81 90.31 109.89 90.31 109.96 90.31 110.04 90.31 110.12 90.31 110.2 90.31 110.28 90.31 110.35 90.31 110.43 90.31 110.51 90.31 110.59 90.31 110.67 90.31 110.75 90.31 110.82 90.31 110.9 90.31 110.98 90.31 111.06 90.31 111.14 90.31 111.22 90.24 111.29 90.24 111.37 90.24 111.45 90.24 111.53 90.24 111.61 90.16 111.69 90.16 111.76 90.16 111.76 90.08 111.84 90.08 111.92 90.08 112 90 112.08 90 112.16 90 112.23 89.92 112.31 89.92 112.31 89.84 112.39 89.84 112.47 89.84 112.47 89.77 112.55 89.77 112.55 89.69 112.63 89.69 112.63 89.61 112.7 89.61 112.7 89.53 112.78 89.53 112.78 89.45 112.78 89.38 112.86 89.38 112.86 89.3 112.86 89.22 112.94 89.22 112.94 89.14 112.94 89.06 112.94 88.98 112.94 88.91 112.94 88.83 112.94 88.75"/><polyline class="cls-1" points="107.77 88.75 107.77 88.75 107.77 88.83 107.77 88.91 107.77 88.98 107.77 89.06 107.85 89.14 107.85 89.22 107.85 89.3 107.93 89.3 107.93 89.38 107.93 89.45 108.01 89.45 108.01 89.53 108.08 89.53 108.08 89.61 108.16 89.61 108.16 89.69 108.24 89.69 108.24 89.77 108.32 89.77 108.32 89.84 108.4 89.84 108.47 89.84 108.47 89.92"/><path class="cls-1" d="M110.59,89.84a.35.35,0,0,0-.23-.23.25.25,0,0,0-.23.23.21.21,0,0,0,.23.23.25.25,0,0,0,.23-.23"/><path class="cls-1" d="M110.75,89.84a.5.5,0,0,0-.39-.39.42.42,0,0,0-.39.39.37.37,0,0,0,.39.39.42.42,0,0,0,.39-.39"/><polyline class="cls-1" points="113.8 87.65 113.8 87.65 113.8 87.57 113.8 87.5 113.72 87.5 113.72 87.42 113.72 87.34 113.72 87.26 113.72 87.18 113.72 87.11 113.64 87.03 113.64 86.95 113.64 86.87 113.56 86.79"/><polyline class="cls-1" points="113.56 86.79 113.56 86.71 113.56 86.64 113.49 86.64 113.49 86.56 113.49 86.48 113.41 86.48 113.41 86.4 113.33 86.4 113.33 86.32 113.25 86.24 113.25 86.17 113.17 86.17 113.17 86.09 113.09 86.09 113.09 86.01 113.02 85.93 112.94 85.93 112.94 85.85 112.86 85.85 112.86 85.77 112.78 85.77 112.78 85.69 112.7 85.69 112.63 85.62 112.55 85.62 112.47 85.54 112.39 85.54 112.31 85.46 112.23 85.46 112.16 85.46 112.16 85.38 112.08 85.38 112 85.38 111.92 85.38 111.92 85.3 111.84 85.3 111.76 85.3"/><polyline class="cls-1" points="108.94 85.3 108.87 85.3 108.79 85.38 108.71 85.38 108.63 85.38 108.55 85.38 108.55 85.46 108.47 85.46 108.4 85.46 108.4 85.54 108.32 85.54 108.24 85.54 108.24 85.62 108.16 85.62 108.08 85.62 108.08 85.69 108.01 85.69 107.93 85.77 107.85 85.85 107.77 85.85 107.77 85.93 107.69 85.93 107.69 86.01 107.61 86.01 107.61 86.09 107.54 86.09 107.54 86.17 107.46 86.24 107.38 86.32 107.38 86.4 107.3 86.4 107.3 86.48 107.3 86.56 107.22 86.56 107.22 86.64 107.22 86.71 107.14 86.71 107.14 86.79 107.14 86.87 107.07 86.95 107.07 87.03 107.07 87.11 106.99 87.18 106.99 87.26 106.99 87.34 106.99 87.42 106.99 87.5 106.99 87.57 106.99 87.65"/><line class="cls-1" x1="106.91" y1="92.35" x2="113.8" y2="92.35"/><polyline class="cls-1" points="127.5 89.69 127.5 89.69 127.5 90.16 126.8 91.18 126.8 92.04 131.42 92.04 131.42 91.18 130.79 90.16 130.79 89.69 131.34 87.97 131.34 87.89 131.42 87.81 131.42 87.73 131.42 87.65 131.42 87.57 131.49 87.57 131.49 87.5 131.49 87.42 131.49 87.34 131.49 87.26 131.49 87.18 131.49 87.11 131.49 87.03 131.49 86.95 131.49 86.87 131.49 86.79 131.49 86.71 131.49 86.64 131.49 86.56 131.49 86.48 131.49 86.4 131.49 86.32 131.49 86.24 131.42 86.17 131.42 86.09 131.42 86.01 131.42 85.93 131.34 85.93 131.34 85.85 131.34 85.77 131.34 85.69 131.26 85.62 131.26 85.54 131.26 85.46 131.18 85.38 131.18 85.3 131.18 85.23 131.1 85.15 131.1 85.07 131.02 84.99 130.95 84.91 130.95 84.83"/><polyline class="cls-1" points="130.95 84.83 130.95 84.76 130.87 84.68 130.79 84.6 130.79 84.52 130.71 84.52 130.71 84.44 130.63 84.36 130.56 84.29 130.56 84.21 130.48 84.21 130.4 84.13 130.32 84.05 130.32 83.97 130.24 83.97 130.16 83.89 130.09 83.82 130.01 83.82 130.01 83.74 129.93 83.74 129.85 83.74 129.85 83.66 129.77 83.66 129.69 83.66 129.62 83.66 129.62 83.58 129.54 83.58 129.46 83.58 129.38 83.58 129.3 83.58 129.22 83.58 129.15 83.58 129.07 83.58 128.99 83.58 128.91 83.58 128.83 83.58 128.75 83.58 128.68 83.58 128.6 83.58 128.6 83.66 128.52 83.66 128.44 83.66 128.36 83.66 128.36 83.74 128.28 83.74 128.21 83.74 128.21 83.82 128.13 83.82 128.13 83.89 128.05 83.89 127.97 83.97 127.89 84.05 127.81 84.05 127.81 84.13 127.74 84.21 127.66 84.29 127.58 84.36 127.58 84.44 127.5 84.44 127.5 84.52 127.42 84.6 127.34 84.68 127.27 84.76 127.27 84.83 127.19 84.91 127.19 84.99 127.11 85.07 127.11 85.15 127.11 85.23 127.03 85.3 127.03 85.38 126.95 85.38 126.95 85.46 126.95 85.54 126.88 85.62 126.88 85.69 126.88 85.77 126.88 85.85 126.8 85.85 126.8 85.93 126.8 86.01 126.8 86.09 126.8 86.17 126.72 86.17 126.72 86.24 126.72 86.32 126.72 86.4 126.72 86.48 126.72 86.56 126.72 86.64 126.72 86.71 126.72 86.79 126.72 86.87 126.72 86.95 126.72 87.03 126.72 87.11 126.72 87.18 126.72 87.26 126.72 87.34 126.72 87.42 126.72 87.5 126.8 87.57 126.8 87.65 126.8 87.73 126.8 87.81 126.88 87.89 126.88 87.97 127.5 89.69"/><line class="cls-1" x1="133.92" y1="92.35" x2="134.08" y2="92.35"/><line class="cls-1" x1="134" y1="92.27" x2="134" y2="92.43"/><line class="cls-1" x1="124.13" y1="92.35" x2="124.29" y2="92.35"/><line class="cls-1" x1="124.21" y1="92.27" x2="124.21" y2="92.43"/><polyline class="cls-1" points="99 76.85 100.8 76.85 100.8 88.59 99 88.59 99 76.85"/><polyline class="cls-1" points="99 58.6 100.8 58.6 100.8 70.27 99 70.27 99 58.6"/><line class="cls-1" x1="104.64" y1="94.31" x2="100.72" y2="94.31"/><polyline class="cls-1" points="100.72 98.22 104.64 98.22 104.64 94.31"/><line class="cls-1" x1="100.72" y1="94.31" x2="100.72" y2="98.22"/><polyline class="cls-2" points="195.23 132.2 195.23 132.36 195.23 132.59 195.23 132.83 195.23 132.99 195.31 133.22 195.31 133.38 195.31 133.61 195.31 133.85 195.38 134 195.38 134.24 195.46 134.4 195.46 134.63 195.54 134.79 195.54 135.02 195.62 135.26 195.7 135.41"/><polyline class="cls-2" points="195.7 135.41 195.78 135.65 195.78 135.8 195.85 136.04 195.93 136.2 196.01 136.35 196.09 136.59 196.17 136.74 196.25 136.98 196.32 137.13 196.4 137.29 196.48 137.53 196.64 137.68 196.71 137.84 196.79 138.07 196.87 138.23 197.03 138.39 197.11 138.54 197.26 138.7 197.34 138.94 197.5 139.09 197.58 139.25 197.73 139.41 197.81 139.56 197.97 139.72 198.12 139.88 198.2 140.03 198.36 140.19 198.51 140.35 198.67 140.5 198.83 140.58 198.99 140.74 199.14 140.89 199.3 141.05 199.46 141.13 199.61 141.28 199.77 141.44 199.93 141.52 200.08 141.68 200.24 141.75 200.39 141.91 200.55 141.99 200.71 142.15 200.94 142.22 201.1 142.3 201.26 142.46 201.41 142.54 201.65 142.62 201.8 142.69 201.96 142.77 202.19 142.93 202.35 143.01 202.59 143.09 202.74 143.16 202.98 143.16 203.13 143.24 203.29 143.32 203.53 143.4 203.68 143.48 203.92 143.48 204.15 143.56 204.31 143.63 204.54 143.63 204.7 143.71 204.94 143.71 205.09 143.79 205.33 143.79 205.48 143.79 205.72 143.87 205.95 143.87 206.11 143.87 206.34 143.87 206.58 143.87 206.74 143.87 206.97 143.87"/><line class="cls-2" x1="206.97" y1="132.2" x2="206.97" y2="143.87"/><polyline class="cls-2" points="321.6 132.2 321.6 132.44 321.6 132.67 321.6 132.91 321.6 133.14 321.67 133.38 321.67 133.61 321.67 133.85 321.75 134.08 321.75 134.32 321.83 134.55 321.83 134.79 321.91 135.02 321.99 135.26 321.99 135.49 322.07 135.73 322.14 135.96 322.22 136.2 322.3 136.43 322.38 136.67 322.46 136.9 322.54 137.06 322.61 137.29 322.69 137.53 322.77 137.76 322.85 138 323 138.15 323.08 138.39 323.24 138.62 323.32 138.86 323.4 139.01 323.55 139.25 323.71 139.41 323.79 139.64 323.94 139.88 324.1 140.03 324.18 140.27 324.34 140.42 324.49 140.58 324.65 140.81 324.81 140.97 324.96 141.21 325.04 141.36 325.2 141.52 325.35 141.68 325.51 141.83 325.75 142.07 325.9 142.22 326.06 142.38 326.21 142.54 326.45 142.69 326.61 142.85 326.76 143.01 327 143.16 327.15 143.24 327.39 143.4 327.55 143.56 327.78 143.71 327.94 143.79 328.17 143.95 328.41 144.03 328.56 144.18 328.8 144.26 329.03 144.42 329.19 144.5 329.43 144.57 329.66 144.73 329.89 144.81 330.13 144.89 330.29 144.97 330.52 145.04 330.76 145.12 330.99 145.2 331.23 145.28 331.46 145.36 331.7 145.44 331.93 145.51 332.17 145.51 332.4 145.59 332.63 145.67 332.87 145.67 333.11 145.75 333.34 145.75 333.57 145.75 333.81 145.83 334.05 145.83 334.28 145.83 334.51 145.91 334.75 145.91 334.98 145.91 335.22 145.91"/><line class="cls-2" x1="335.22" y1="132.2" x2="335.22" y2="145.9"/><polyline class="cls-2" points="383.37 132.05 383.37 132.28 383.37 132.52 383.37 132.83 383.45 133.06 383.45 133.3 383.45 133.53 383.45 133.77 383.53 134 383.53 134.24 383.61 134.47 383.61 134.71 383.68 134.94 383.76 135.18 383.76 135.41 383.84 135.65 383.92 135.88 384 136.12 384.08 136.27 384.15 136.51 384.23 136.74 384.31 136.98 384.39 137.21 384.47 137.45 384.55 137.68 384.62 137.84 384.78 138.07 384.86 138.31 385.01 138.54 385.09 138.7 385.25 138.94 385.33 139.17 385.49 139.33"/><polyline class="cls-2" points="385.49 139.33 385.56 139.56 385.72 139.72 385.88 139.95 386.03 140.11 386.11 140.35 386.27 140.5 386.42 140.74 386.58 140.89 386.74 141.05 386.89 141.28 387.05 141.44 387.21 141.6 387.36 141.75 387.6 141.91 387.76 142.07 387.91 142.3 388.07 142.46 388.3 142.62 388.46 142.69 388.62 142.85 388.85 143.01 389.01 143.16 389.24 143.32 389.4 143.48 389.63 143.56 389.79 143.71 390.03 143.79 390.26 143.95 390.42 144.1 390.65 144.18 390.89 144.26 391.04 144.42 391.28 144.5 391.51 144.57 391.75 144.73 391.98 144.81 392.14 144.89 392.38 144.97 392.61 145.04 392.85 145.12 393.08 145.2 393.31 145.28 393.55 145.36 393.78 145.36 394.02 145.44 394.18 145.51 394.41 145.51 394.65 145.59 394.88 145.59 395.12 145.67 395.35 145.67 395.58 145.75 395.82 145.75 396.06 145.75 396.29 145.75 396.52 145.75 396.76 145.75 396.99 145.75"/><line class="cls-2" x1="396.99" y1="132.05" x2="396.99" y2="145.75"/><polyline class="cls-2" points="446.95 132.13 446.95 132.36 446.95 132.59 446.95 132.83 446.95 133.06 446.95 133.3 447.02 133.53 447.02 133.77 447.02 134 447.1 134.24 447.1 134.47 447.18 134.71 447.26 134.94 447.26 135.18 447.34 135.41 447.42 135.65 447.42 135.88 447.5 136.12 447.57 136.35 447.65 136.59 447.73 136.74 447.81 136.98 447.89 137.21 448.04 137.45 448.12 137.68 448.2 137.92 448.28 138.07 448.44 138.31 448.51 138.54 448.67 138.7 448.75 138.94 448.9 139.17 448.98 139.33 449.14 139.56 449.3 139.72 449.37 139.95 449.53 140.11 449.69 140.35 449.84 140.5 450 140.74 450.16 140.89 450.31 141.05 450.47 141.28 450.63 141.44 450.78 141.6 450.94 141.75 451.1 141.99 451.25 142.15 451.49 142.3 451.64 142.46 451.8 142.62 452.04 142.77 452.19 142.93 452.35 143.01 452.58 143.16 452.74 143.32 452.98 143.48 453.13 143.56 453.37 143.71 453.6 143.87 453.76 143.95 453.99 144.1 454.23 144.18 454.38 144.34 454.62 144.42 454.86 144.5 455.09 144.65 455.25 144.73 455.48 144.81 455.72 144.89 455.95 144.97 456.19 145.04 456.42 145.12 456.66 145.2 456.89 145.28 457.05 145.36 457.28 145.36 457.52 145.44 457.75 145.51 457.99 145.51 458.22 145.59 458.46 145.67 458.69 145.67 458.93 145.67 459.24 145.75 459.47 145.75 459.71 145.75 459.94 145.75 460.18 145.83 460.41 145.83 460.65 145.83"/><line class="cls-2" x1="460.65" y1="132.12" x2="460.65" y2="145.83"/><polyline class="cls-2" points="508.64 132.05 508.64 132.28 508.64 132.59 508.64 132.83 508.72 133.06 508.72 133.3 508.72 133.53 508.72 133.77 508.8 134 508.8 134.24 508.88 134.47 508.88 134.71 508.96 134.94 509.04 135.18 509.04 135.41 509.11 135.65 509.19 135.88 509.27 136.12 509.35 136.35 509.43 136.51 509.5 136.74 509.58 136.98 509.66 137.21 509.74 137.45 509.82 137.68 509.9 137.84 510.05 138.07 510.13 138.31 510.29 138.54 510.37 138.7 510.52 138.94 510.6 139.17 510.76 139.33 510.84 139.56 510.99 139.72 511.15 139.95 511.31 140.11 511.38 140.35 511.54 140.5 511.7 140.74 511.85 140.89 512.01 141.05 512.17 141.28 512.32 141.44 512.48 141.6 512.64 141.75 512.87 141.91 513.03 142.07 513.18 142.3"/><polyline class="cls-2" points="513.18 142.3 513.34 142.46 513.58 142.62 513.73 142.77 513.89 142.85 514.13 143.01 514.28 143.16 514.52 143.32 514.67 143.48 514.91 143.56 515.06 143.71 515.3 143.87 515.53 143.95 515.69 144.1 515.92 144.18 516.16 144.26 516.32 144.42 516.55 144.5 516.79 144.57 517.02 144.73 517.26 144.81 517.41 144.89 517.65 144.97 517.88 145.04 518.12 145.12 518.35 145.2 518.59 145.28 518.82 145.36 519.06 145.36 519.29 145.44 519.53 145.51 519.76 145.51 520 145.59 520.23 145.59 520.47 145.67 520.7 145.67 520.94 145.75 521.17 145.75 521.41 145.75 521.64 145.75 521.88 145.75 522.11 145.83 522.35 145.83"/><line class="cls-2" x1="522.35" y1="132.05" x2="522.35" y2="145.83"/><polyline class="cls-1" points="39.65 281.98 37.77 281.98 37.77 286.44 39.65 286.44 39.65 281.98"/><polyline class="cls-1" points="66.51 281.98 64.63 281.98 64.63 286.44 66.51 286.44 66.51 281.98"/><polyline class="cls-1" points="50.3 281.98 48.42 281.98 48.42 286.44 50.3 286.44 50.3 281.98"/><polyline class="cls-1" points="77.23 281.98 75.36 281.98 75.36 286.44 77.23 286.44 77.23 281.98"/><polyline class="cls-2" points="486.56 136.2 470.9 136.2 470.9 132.13 486.56 132.13 486.56 136.2"/><line class="cls-2" x1="105.81" y1="139.41" x2="101.98" y2="139.41"/><polyline class="cls-2" points="101.98 143.32 105.81 143.32 105.81 139.41"/><line class="cls-2" x1="101.98" y1="139.41" x2="101.98" y2="143.32"/><line class="cls-2" x1="374.99" y1="136.04" x2="361.92" y2="132.12"/><line class="cls-2" x1="361.92" y1="136.04" x2="374.99" y2="132.12"/><polyline class="cls-2" points="361.92 132.13 374.99 132.13 374.99 136.04 361.92 136.04 361.92 132.13"/><line class="cls-2" x1="171.89" y1="132.36" x2="167.98" y2="132.36"/><polyline class="cls-2" points="167.98 136.27 171.9 136.27 171.9 132.36"/><line class="cls-2" x1="167.98" y1="132.36" x2="167.98" y2="136.27"/><line class="cls-2" x1="234.77" y1="132.36" x2="230.85" y2="132.36"/><polyline class="cls-2" points="230.85 136.27 234.77 136.27 234.77 132.36"/><line class="cls-2" x1="230.85" y1="132.36" x2="230.85" y2="136.27"/><line class="cls-2" x1="297.72" y1="132.36" x2="293.8" y2="132.36"/><polyline class="cls-2" points="293.8 136.27 297.72 136.27 297.72 132.36"/><line class="cls-2" x1="293.8" y1="132.36" x2="293.8" y2="136.27"/><line class="cls-2" x1="360.67" y1="132.12" x2="356.75" y2="132.12"/><polyline class="cls-2" points="356.75 136.04 360.67 136.04 360.67 132.13"/><line class="cls-2" x1="356.75" y1="132.12" x2="356.75" y2="136.04"/><line class="cls-2" x1="423.61" y1="132.28" x2="419.7" y2="132.28"/><polyline class="cls-2" points="419.7 136.2 423.62 136.2 423.62 132.28"/><line class="cls-2" x1="419.7" y1="132.28" x2="419.7" y2="136.2"/><line class="cls-2" x1="486.49" y1="132.28" x2="482.57" y2="132.28"/><polyline class="cls-2" points="482.57 136.2 486.49 136.2 486.49 132.28"/><line class="cls-2" x1="482.57" y1="132.28" x2="482.57" y2="136.2"/><line class="cls-1" x1="549.36" y1="132.05" x2="545.52" y2="132.05"/><polyline class="cls-1" points="545.52 135.96 549.36 135.96 549.36 132.05"/><line class="cls-1" x1="545.52" y1="132.05" x2="545.52" y2="135.96"/><polyline class="cls-2" points="139.48 244.24 137.6 244.24 137.6 248.71 139.48 248.71 139.48 244.24"/><polyline class="cls-2" points="123.35 244.24 121.47 244.24 121.47 248.71 123.35 248.71 123.35 244.24"/><polyline class="cls-2" points="155.61 244.24 153.73 244.24 153.73 248.71 155.61 248.71 155.61 244.24"/><polyline class="cls-2" points="202.43 244.24 200.55 244.24 200.55 248.71 202.43 248.71 202.43 244.24"/><polyline class="cls-2" points="186.38 244.24 184.5 244.24 184.5 248.71 186.38 248.71 186.38 244.24"/><polyline class="cls-2" points="218.48 244.24 216.6 244.24 216.6 248.71 218.48 248.71 218.48 244.24"/><polyline class="cls-2" points="265.38 244.24 263.5 244.24 263.5 248.71 265.38 248.71 265.38 244.24"/><polyline class="cls-2" points="249.33 244.24 247.45 244.24 247.45 248.71 249.33 248.71 249.33 244.24"/><polyline class="cls-2" points="281.43 244.24 279.55 244.24 279.55 248.71 281.43 248.71 281.43 244.24"/><polyline class="cls-2" points="328.25 244.24 326.37 244.24 326.37 248.71 328.25 248.71 328.25 244.24"/><polyline class="cls-2" points="312.2 244.24 310.32 244.24 310.32 248.71 312.2 248.71 312.2 244.24"/><polyline class="cls-2" points="344.3 244.24 342.42 244.24 342.42 248.71 344.3 248.71 344.3 244.24"/><polyline class="cls-2" points="391.28 244.24 389.4 244.24 389.4 248.71 391.28 248.71 391.28 244.24"/><polyline class="cls-2" points="375.15 244.24 373.27 244.24 373.27 248.71 375.15 248.71 375.15 244.24"/><line class="cls-2" x1="407.25" y1="244.24" x2="405.37" y2="244.24"/><polyline class="cls-2" points="405.37 244.24 405.37 248.71 407.25 248.71 407.25 244.24"/><polyline class="cls-2" points="454.15 244.24 452.27 244.24 452.27 248.71 454.15 248.71 454.15 244.24"/><polyline class="cls-2" points="438.02 244.24 436.14 244.24 436.14 248.71 438.02 248.71 438.02 244.24"/><polyline class="cls-2" points="470.2 244.24 468.32 244.24 468.32 248.71 470.2 248.71 470.2 244.24"/><polyline class="cls-2" points="517.1 244.24 515.22 244.24 515.22 248.71 517.1 248.71 517.1 244.24"/><polyline class="cls-2" points="500.97 244.24 499.09 244.24 499.09 248.71 500.97 248.71 500.97 244.24"/><polyline class="cls-2" points="533.07 244.24 531.27 244.24 531.27 248.71 533.07 248.71 533.07 244.24"/><polyline class="cls-1" points="580.05 244.24 578.17 244.24 578.17 248.71 580.05 248.71 580.05 244.24"/><polyline class="cls-1" points="563.92 244.24 562.04 244.24 562.04 248.71 563.92 248.71 563.92 244.24"/><line class="cls-2" x1="109.65" y1="245.81" x2="105.74" y2="245.81"/><polyline class="cls-2" points="105.73 249.72 109.65 249.72 109.65 245.81"/><line class="cls-2" x1="105.74" y1="245.81" x2="105.74" y2="249.72"/><line class="cls-2" x1="171.89" y1="245.81" x2="167.98" y2="245.81"/><polyline class="cls-2" points="167.98 249.72 171.9 249.72 171.9 245.81"/><line class="cls-2" x1="167.98" y1="245.81" x2="167.98" y2="249.72"/><line class="cls-2" x1="234.84" y1="245.81" x2="230.93" y2="245.81"/><polyline class="cls-2" points="230.93 249.72 234.84 249.72 234.84 245.81"/><line class="cls-2" x1="230.93" y1="245.81" x2="230.93" y2="249.72"/><line class="cls-2" x1="297.72" y1="245.81" x2="293.8" y2="245.81"/><polyline class="cls-2" points="293.8 249.72 297.72 249.72 297.72 245.81"/><line class="cls-2" x1="293.8" y1="245.81" x2="293.8" y2="249.72"/><line class="cls-2" x1="360.67" y1="245.81" x2="356.75" y2="245.81"/><polyline class="cls-2" points="356.75 249.72 360.67 249.72 360.67 245.81"/><line class="cls-2" x1="356.75" y1="245.81" x2="356.75" y2="249.72"/><line class="cls-2" x1="423.54" y1="245.81" x2="419.7" y2="245.81"/><polyline class="cls-2" points="419.7 249.72 423.54 249.72 423.54 245.81"/><line class="cls-2" x1="419.7" y1="245.81" x2="419.7" y2="249.72"/><line class="cls-2" x1="486.49" y1="245.81" x2="482.57" y2="245.81"/><polyline class="cls-2" points="482.57 249.72 486.49 249.72 486.49 245.81"/><line class="cls-2" x1="482.57" y1="245.81" x2="482.57" y2="249.72"/><line class="cls-1" x1="549.44" y1="245.81" x2="545.52" y2="245.81"/><polyline class="cls-1" points="545.52 249.72 549.44 249.72 549.44 245.81"/><line class="cls-1" x1="545.52" y1="245.81" x2="545.52" y2="249.72"/><line class="cls-1" x1="297.4" y1="92.59" x2="293.49" y2="92.59"/><polyline class="cls-1" points="293.49 96.5 297.4 96.5 297.4 92.58"/><line class="cls-1" x1="293.49" y1="92.59" x2="293.49" y2="96.5"/><line class="cls-1" x1="360.67" y1="92.59" x2="356.75" y2="92.59"/><polyline class="cls-1" points="356.75 96.5 360.67 96.5 360.67 92.58"/><line class="cls-1" x1="356.75" y1="92.59" x2="356.75" y2="96.5"/><line class="cls-1" x1="423.54" y1="92.59" x2="419.62" y2="92.59"/><polyline class="cls-1" points="419.62 96.5 423.54 96.5 423.54 92.58"/><line class="cls-1" x1="419.62" y1="92.59" x2="419.62" y2="96.5"/><line class="cls-1" x1="486.49" y1="92.59" x2="482.57" y2="92.59"/><polyline class="cls-1" points="482.57 96.5 486.49 96.5 486.49 92.58"/><line class="cls-1" x1="482.57" y1="92.59" x2="482.57" y2="96.5"/><line class="cls-1" x1="549.36" y1="92.59" x2="545.52" y2="92.59"/><polyline class="cls-1" points="545.52 96.5 549.36 96.5 549.36 92.58"/><line class="cls-1" x1="545.52" y1="92.59" x2="545.52" y2="96.5"/><polyline class="cls-1" points="328.33 98.38 330.21 98.38 330.21 93.92 328.33 93.92 328.33 98.38"/><polyline class="cls-1" points="344.3 98.46 346.18 98.46 346.18 94 344.3 94 344.3 98.46"/><polyline class="cls-1" points="312.36 98.38 314.24 98.38 314.24 93.92 312.36 93.92 312.36 98.38"/><polyline class="cls-1" points="391.12 98.46 393 98.46 393 94 391.12 94 391.12 98.46"/><polyline class="cls-1" points="407.17 98.46 409.05 98.46 409.05 94 407.17 94 407.17 98.46"/><polyline class="cls-1" points="375.07 98.46 376.95 98.46 376.95 94 375.07 94 375.07 98.46"/><polyline class="cls-1" points="437.55 98.46 439.43 98.46 439.43 94 437.55 94 437.55 98.46"/><polyline class="cls-1" points="469.65 98.46 471.53 98.46 471.53 94 469.65 94 469.65 98.46"/><polyline class="cls-1" points="453.6 98.46 455.48 98.46 455.48 94 453.6 94 453.6 98.46"/><polyline class="cls-1" points="516 98.46 517.88 98.46 517.88 94 516 94 516 98.46"/><polyline class="cls-1" points="532.13 98.46 533.93 98.46 533.93 94 532.13 94 532.13 98.46"/><polyline class="cls-1" points="499.95 98.46 501.83 98.46 501.83 94 499.95 94 499.95 98.46"/><polyline class="cls-1" points="562.36 98.46 564.23 98.46 564.23 94 562.36 94 562.36 98.46"/><polyline class="cls-1" points="578.48 98.46 580.36 98.46 580.36 94 578.48 94 578.48 98.46"/><polyline class="cls-1" points="97.04 97.2 97.04 97.2 97.67 97.2 97.67 95.33 97.04 95.33 97.04 97.2"/><polyline class="cls-1" points="85.3 97.2 85.3 97.2 84.67 97.2 84.67 95.33 85.3 95.33 85.3 97.2"/><polyline class="cls-1" points="97.04 96.5 97.04 96.5 96.81 96.5 96.81 95.87 97.04 95.87 97.04 96.5"/><polyline class="cls-1" points="85.3 96.5 85.3 96.5 85.53 96.5 85.53 95.87 85.3 95.87 85.3 96.5"/><polyline class="cls-1" points="85.3 95.33 85.3 95.09 85.3 94.93 85.3 94.7 85.38 94.46 85.38 94.31 85.38 94.07 85.38 93.92 85.46 93.68 85.46 93.45 85.53 93.29 85.53 93.06 85.61 92.9 85.61 92.66 85.69 92.51 85.69 92.27 85.77 92.12 85.85 91.88 85.93 91.72 85.93 91.49 86 91.33 86.08 91.1 86.16 90.94 86.24 90.71 86.32 90.55 86.4 90.39 86.47 90.16 86.63 90 86.71 89.84 86.79 89.61 86.87 89.45 87.02 89.3 87.1 89.14 87.18 88.91 87.34 88.75 87.41 88.59 87.57 88.44 87.65 88.28 87.81 88.12 87.96 87.97 88.04 87.81 88.2 87.65 88.35 87.5 88.43 87.34 88.59 87.18 88.75 87.03 88.9 86.87 89.06 86.71 89.22 86.64 89.37 86.48 89.53 86.32 89.68 86.24 89.84 86.09 90 85.93 90.15 85.85 90.31 85.69 90.47 85.62 90.62 85.46 90.86 85.38 91.02 85.3 91.17 85.15 91.33 85.07 91.56 84.99 91.72 84.83 91.88 84.76 92.11 84.68 92.27 84.6 92.42 84.52 92.66 84.44 92.82 84.36 93.05 84.29 93.21 84.21 93.44 84.13 93.6 84.13 93.83 84.05 93.99 83.97 94.23 83.97 94.38 83.89 94.62 83.82 94.77 83.82 95.01 83.74 95.24 83.74 95.4 83.74 95.64 83.66 95.79 83.66 96.03 83.66 96.18 83.66 96.42 83.58 96.65 83.58 96.81 83.58 97.04 83.58"/><polyline class="cls-1" points="97.04 95.33 97.04 95.33 96.5 95.33 96.5 83.58 97.04 83.58 97.04 95.33"/><line class="cls-2" x1="531.27" y1="244.24" x2="531.27" y2="132.05"/><line class="cls-2" x1="527.07" y1="244.17" x2="527.07" y2="132.36"/><line class="cls-2" x1="522.35" y1="132.05" x2="527.07" y2="132.05"/></g></g></svg>