<svg xmlns="http://www.w3.org/2000/svg" viewBox="0 0 377.22 250.67"><defs><style>.cls-1,.cls-3,.cls-4,.cls-5{fill:none;}.cls-1,.cls-2,.cls-3,.cls-4,.cls-5{stroke:#010101;}.cls-1,.cls-2,.cls-5{stroke-width:0.5px;}.cls-2{fill:#fff;}.cls-3,.cls-4{stroke-width:0.07px;}.cls-4,.cls-5{stroke-dasharray:4 4;}</style></defs><title>mudgehouse</title><g id="Layer_2" data-name="Layer 2"><g id="Layer_4" data-name="Layer 4"><line class="cls-1" x1="371.96" y1="239.26" x2="371.14" y2="239.26"/><rect class="cls-2" x="205.69" y="18.05" width="43.59" height="87.07"/><rect class="cls-2" x="347.3" y="121.19" width="22.31" height="35.71"/><rect class="cls-2" x="347.3" y="159.97" width="22.31" height="35.71"/><polygon class="cls-2" points="326.33 24.4 326.33 81.08 314.56 81.08 314.56 101.14 326.33 101.14 326.33 118.22 369.91 118.22 369.92 24.4 326.33 24.4"/><polygon class="cls-2" points="232.5 145.23 240.07 145.23 240.07 125.08 232.5 125.08 232.5 108.61 205.69 108.61 205.69 162.22 232.5 162.22 232.5 145.23"/><line class="cls-1" x1="197.71" y1="16.42" x2="219.2" y2="16.42"/><line class="cls-1" x1="282.64" y1="16.42" x2="290.41" y2="16.42"/><line class="cls-1" x1="282.64" y1="8.54" x2="290.41" y2="8.54"/><line class="cls-1" x1="283.15" y1="15.8" x2="289.9" y2="15.8"/><line class="cls-1" x1="283.15" y1="9.15" x2="289.9" y2="9.15"/><line class="cls-1" x1="282.64" y1="8.54" x2="282.64" y2="16.42"/><line class="cls-1" x1="290.41" y1="8.54" x2="290.41" y2="16.42"/><line class="cls-1" x1="286.53" y1="9.15" x2="286.53" y2="15.8"/><line class="cls-1" x1="272.3" y1="2.4" x2="300.75" y2="2.4"/><line class="cls-1" x1="197.71" y1="8.03" x2="219.2" y2="8.03"/><line class="cls-1" x1="376.97" y1="2.4" x2="376.97" y2="250.42"/><line class="cls-1" x1="371.96" y1="22.56" x2="371.96" y2="239.26"/><line class="cls-1" x1="202.73" y1="16.42" x2="202.73" y2="172.76"/><line class="cls-1" x1="197.71" y1="2.4" x2="197.71" y2="159.97"/><line class="cls-1" x1="353.85" y1="0.25" x2="353.85" y2="16.42"/><line class="cls-1" x1="306.37" y1="0.25" x2="306.37" y2="16.42"/><line class="cls-1" x1="266.68" y1="0.25" x2="266.68" y2="16.42"/><line class="cls-1" x1="359.38" y1="2.4" x2="376.97" y2="2.4"/><line class="cls-1" x1="353.85" y1="0.25" x2="359.38" y2="0.25"/><line class="cls-1" x1="353.85" y1="8.03" x2="376.97" y2="8.03"/><line class="cls-1" x1="353.85" y1="16.42" x2="376.97" y2="16.42"/><line class="cls-1" x1="359.38" y1="0.25" x2="359.38" y2="2.4"/><line class="cls-1" x1="363.57" y1="16.42" x2="363.57" y2="22.56"/><line class="cls-1" x1="272.3" y1="0.25" x2="272.3" y2="2.4"/><polyline class="cls-1" points="300.75 2.4 300.75 0.25 306.38 0.25"/><polyline class="cls-1" points="282.64 16.42 282.64 8.54 290.41 8.54 290.41 16.42"/><line class="cls-1" x1="219.2" y1="0.25" x2="219.2" y2="16.42"/><polyline class="cls-1" points="213.68 0.25 213.68 2.4 197.71 2.4"/><line class="cls-1" x1="266.68" y1="0.25" x2="272.3" y2="0.25"/><line class="cls-1" x1="266.68" y1="8.03" x2="306.37" y2="8.03"/><line class="cls-1" x1="266.68" y1="16.42" x2="306.37" y2="16.42"/><line class="cls-1" x1="213.67" y1="0.25" x2="219.2" y2="0.25"/><line class="cls-1" x1="371.14" y1="239.26" x2="371.14" y2="250.42"/><line class="cls-1" x1="371.14" y1="245.4" x2="202.73" y2="245.4"/><line class="cls-1" x1="376.97" y1="250.42" x2="189.94" y2="250.42"/><line class="cls-1" x1="197.71" y1="245.4" x2="189.94" y2="245.4"/><line class="cls-1" x1="197.71" y1="164.98" x2="188.81" y2="164.98"/><line class="cls-3" x1="197.71" y1="159.97" x2="0.04" y2="159.97"/><line class="cls-3" x1="153" y1="164.98" x2="144.1" y2="164.98"/><polyline class="cls-1" points="197.71 164.98 197.71 172.76 202.73 172.76"/><line class="cls-1" x1="202.73" y1="170.61" x2="197.71" y2="170.61"/><line class="cls-1" x1="202.73" y1="208.57" x2="197.71" y2="208.57"/><line class="cls-1" x1="202.73" y1="210.82" x2="197.71" y2="210.82"/><line class="cls-1" x1="202.73" y1="208.57" x2="202.73" y2="245.4"/><line class="cls-1" x1="197.71" y1="208.57" x2="197.71" y2="245.4"/><polyline class="cls-3" points="139.09 164.98 139.09 171.63 144.1 171.63 144.1 164.98"/><line class="cls-3" x1="144.1" y1="169.48" x2="139.09" y2="169.48"/><line class="cls-3" x1="144.1" y1="205.19" x2="139.09" y2="205.19"/><polyline class="cls-3" points="139.09 245.4 139.09 202.94 144.1 202.94 144.1 245.4"/><line class="cls-3" x1="51.91" y1="164.98" x2="51.91" y2="245.4"/><line class="cls-3" x1="0.04" y1="159.97" x2="0.04" y2="196.8"/><polyline class="cls-3" points="46.9 164.98 46.9 191.79 5.05 191.79 5.05 164.98"/><line class="cls-3" x1="46.9" y1="196.8" x2="0.04" y2="196.8"/><line class="cls-3" x1="98.87" y1="227.4" x2="98.87" y2="245.4"/><line class="cls-3" x1="103.89" y1="225.25" x2="103.89" y2="245.4"/><line class="cls-3" x1="77.08" y1="198.44" x2="51.91" y2="198.44"/><line class="cls-3" x1="75.03" y1="203.56" x2="51.91" y2="203.56"/><line class="cls-3" x1="103.89" y1="225.25" x2="98.98" y2="220.44"/><line class="cls-3" x1="98.87" y1="227.4" x2="95.5" y2="224.02"/><line class="cls-3" x1="139.08" y1="245.4" x2="51.91" y2="245.4"/><line class="cls-1" x1="192.09" y1="245.4" x2="192.09" y2="250.42"/><line class="cls-3" x1="151.87" y1="245.4" x2="151.87" y2="250.42"/><line class="cls-3" x1="154.13" y1="245.4" x2="154.13" y2="250.42"/><line class="cls-1" x1="189.94" y1="245.4" x2="189.94" y2="250.42"/><line class="cls-3" x1="154.13" y1="250.42" x2="46.9" y2="250.42"/><line class="cls-3" x1="154.13" y1="245.4" x2="144.1" y2="245.4"/><line class="cls-3" x1="111.15" y1="229.75" x2="111.15" y2="245.4"/><line class="cls-3" x1="133.46" y1="229.75" x2="133.46" y2="245.4"/><polyline class="cls-3" points="131.21 238.75 131.41 237.22 131.31 235.58 131 234.05 130.49 232.61 129.67 231.28 128.65 230.16 127.42 229.13 126.09 228.42 124.66 227.91 123.12 227.6 121.49 227.6 119.95 227.91 118.52 228.42 117.19 229.13 115.96 230.16 114.94 231.28 114.12 232.61 113.61 234.05 113.3 235.58 113.2 237.22 113.4 238.75"/><line class="cls-3" x1="133.46" y1="245.4" x2="111.15" y2="245.4"/><line class="cls-3" x1="133.46" y1="240.9" x2="111.15" y2="240.9"/><line class="cls-3" x1="131.21" y1="238.65" x2="113.4" y2="238.65"/><line class="cls-3" x1="129.06" y1="225.25" x2="115.65" y2="225.25"/><polyline class="cls-3" points="133.46 229.75 133.35 228.62 132.84 227.5 132.13 226.68 131.21 225.96 130.18 225.45 129.06 225.35"/><polyline class="cls-3" points="115.65 225.35 114.53 225.45 113.4 225.96 112.58 226.68 111.87 227.5 111.36 228.62 111.25 229.75"/><line class="cls-3" x1="75.55" y1="181.76" x2="41.99" y2="181.76"/><polyline class="cls-3" points="75.55 189.54 76.98 189.44 78.31 189.03 79.64 188.41 80.76 187.49 81.79 186.47 82.5 185.24 83.02 183.91 83.32 182.48 83.32 181.05 83.02 179.61 82.5 178.28 81.79 177.06 80.76 176.03 79.64 175.11 78.31 174.5 76.98 174.09 75.55 173.99"/><polyline class="cls-3" points="75.55 173.88 73.09 174.09 70.63 174.4 68.18 175.11 65.83 176.03 63.58 177.16 61.43 178.49 59.48 180.02"/><polyline class="cls-3" points="59.48 180.13 58.97 180.84 58.77 181.76 58.97 182.68 59.48 183.4 61.43 184.93 63.57 186.26 65.83 187.39 68.18 188.31 70.63 189.03 73.09 189.33 75.55 189.54"/><line class="cls-3" x1="46.9" y1="196.8" x2="46.9" y2="250.42"/><rect class="cls-1" x="306.37" y="0.25" width="47.48" height="16.17"/><line class="cls-1" x1="306.37" y1="12.53" x2="353.85" y2="12.53"/><line class="cls-1" x1="309.65" y1="10.28" x2="350.47" y2="10.28"/><line class="cls-1" x1="306.37" y1="8.03" x2="353.85" y2="8.03"/><line class="cls-1" x1="309.65" y1="12.53" x2="309.65" y2="8.03"/><line class="cls-1" x1="350.47" y1="8.03" x2="350.47" y2="12.53"/><rect class="cls-1" x="219.2" y="0.25" width="47.48" height="16.17"/><line class="cls-1" x1="219.2" y1="12.53" x2="266.68" y2="12.53"/><line class="cls-1" x1="222.58" y1="10.28" x2="263.3" y2="10.28"/><line class="cls-1" x1="219.2" y1="8.03" x2="266.68" y2="8.03"/><line class="cls-1" x1="222.58" y1="12.53" x2="222.58" y2="8.03"/><line class="cls-1" x1="263.3" y1="8.03" x2="263.3" y2="12.53"/><polyline class="cls-1" points="371.96 215.83 213.98 215.83 213.98 245.4"/><line class="cls-1" x1="255.22" y1="215.83" x2="255.22" y2="245.4"/><line class="cls-1" x1="257.47" y1="215.83" x2="257.47" y2="245.4"/><line class="cls-1" x1="366.33" y1="215.83" x2="366.33" y2="245.4"/><line class="cls-1" x1="319.47" y1="215.83" x2="319.47" y2="245.4"/><line class="cls-1" x1="317.22" y1="215.83" x2="317.22" y2="245.4"/><line class="cls-1" x1="255.22" y1="215.83" x2="257.47" y2="215.83"/><line class="cls-1" x1="317.22" y1="215.83" x2="319.47" y2="215.83"/><line class="cls-1" x1="366.33" y1="215.83" x2="371.96" y2="215.83"/><line class="cls-1" x1="208.35" y1="215.83" x2="202.73" y2="215.83"/><line class="cls-1" x1="232.91" y1="216.96" x2="208.35" y2="216.96"/><line class="cls-1" x1="255.22" y1="217.98" x2="230.66" y2="217.98"/><line class="cls-1" x1="344.03" y1="216.96" x2="319.47" y2="216.96"/><line class="cls-1" x1="366.33" y1="217.98" x2="341.78" y2="217.98"/><polyline class="cls-4" points="107.88 171.63 107.98 174.5 108.39 177.36 109.11 180.13 110.03 182.89 111.15 185.55 112.58 188.11 114.22 190.46 116.06 192.61 118.11 194.65 120.26 196.5 122.61 198.13 125.17 199.57 127.83 200.69 130.59 201.61 133.35 202.33 136.22 202.74 139.09 202.84"/><line class="cls-3" x1="139.08" y1="171.63" x2="113.1" y2="189.03"/><polyline class="cls-3" points="75.03 203.56 65.31 232 98.87 245.4"/><line class="cls-3" x1="65.31" y1="232" x2="51.91" y2="203.56"/><polyline class="cls-3" points="65.31 228.73 64.39 228.83 63.58 229.24 62.86 229.85 62.35 230.67 62.04 231.49 62.04 232.51 62.35 233.33 62.86 234.15 63.58 234.76 64.39 235.17 65.31 235.27 66.23 235.17 67.05 234.76 67.77 234.15 68.28 233.33 68.59 232.51 68.59 231.49 68.28 230.67 67.77 229.85 67.05 229.24 66.23 228.83 65.31 228.73"/><line class="cls-3" x1="51.91" y1="245.4" x2="65.31" y2="232"/><polyline class="cls-4" points="99.08 220.44 100.61 218.6 102.05 216.55 103.17 214.4 103.99 212.15 104.6 209.8 104.91 207.44 104.91 204.99 104.6 202.63 103.99 200.28 103.17 198.03 102.05 195.88 100.61 193.84 99.08 191.99"/><line class="cls-3" x1="84.86" y1="206.22" x2="104.5" y2="202.23"/><line class="cls-3" x1="84.86" y1="206.22" x2="98.98" y2="220.44"/><polyline class="cls-3" points="84.86 206.22 81.28 209.8 95.5 224.02 98.98 220.44"/><line class="cls-3" x1="81.28" y1="209.8" x2="75.03" y2="203.56"/><line class="cls-3" x1="84.86" y1="206.22" x2="77.08" y2="198.44"/><polyline class="cls-3" points="139.09 245.4 51.91 245.4 51.91 164.98"/><line class="cls-3" x1="51.91" y1="164.98" x2="139.09" y2="164.98"/><line class="cls-3" x1="144.1" y1="164.98" x2="197.71" y2="164.98"/><line class="cls-1" x1="376.97" y1="22.56" x2="376.97" y2="159.97"/><polyline class="cls-1" points="371.96 22.55 371.96 239.26 371.14 239.26 371.14 245.4 202.73 245.4"/><polyline class="cls-5" points="238.44 208.57 238.33 205.5 237.92 202.33 237.21 199.36 236.29 196.39 235.06 193.53 233.63 190.66 231.99 188.11 230.04 185.65 228 183.3 225.65 181.25 223.19 179.31 220.53 177.67 217.77 176.24 214.9 175.01 211.94 174.09 208.97 173.37 205.8 172.96 202.73 172.86"/><line class="cls-1" x1="202.73" y1="208.57" x2="232.5" y2="188.72"/><polyline class="cls-4" points="189.84 245.4 189.73 242.33 189.32 239.16 188.61 236.19 187.69 233.23 186.46 230.36 185.03 227.5 183.39 224.94 181.44 222.48 179.4 220.13 177.04 218.09 174.59 216.14 172.03 214.5 169.17 213.07 166.3 211.84 163.33 210.92 160.37 210.21 157.19 209.8 154.13 209.69"/><line class="cls-3" x1="154.13" y1="245.4" x2="154.13" y2="209.69"/><line class="cls-3" x1="46.9" y1="164.98" x2="5.05" y2="164.98"/><line class="cls-1" x1="369.91" y1="118.22" x2="326.33" y2="118.22"/><polyline class="cls-1" points="326.33 60.62 369.92 51.2 326.33 51.2"/><line class="cls-1" x1="326.33" y1="24.4" x2="369.91" y2="24.4"/><line class="cls-1" x1="338.81" y1="78.22" x2="326.33" y2="60.62"/><line class="cls-1" x1="326.33" y1="118.22" x2="326.33" y2="24.4"/><line class="cls-1" x1="317.12" y1="81.08" x2="317.12" y2="101.14"/><polyline class="cls-1" points="326.33 81.08 314.56 81.08 314.56 101.14 326.33 101.14"/><line class="cls-1" x1="369.91" y1="24.4" x2="369.91" y2="118.22"/><line class="cls-1" x1="369.91" y1="51.2" x2="338.81" y2="78.22"/><rect class="cls-1" x="347.3" y="121.19" width="22.31" height="35.71"/><line class="cls-1" x1="236.8" y1="71.77" x2="249.28" y2="54.27"/><line class="cls-1" x1="249.28" y1="105.13" x2="249.28" y2="18.05"/><line class="cls-1" x1="205.69" y1="18.05" x2="205.69" y2="105.13"/><line class="cls-1" x1="205.69" y1="44.86" x2="236.8" y2="71.77"/><line class="cls-1" x1="205.69" y1="105.13" x2="249.28" y2="105.13"/><line class="cls-1" x1="249.28" y1="18.05" x2="205.69" y2="18.05"/><polyline class="cls-1" points="249.28 44.86 205.69 44.86 249.28 54.27"/><line class="cls-1" x1="232.5" y1="145.23" x2="240.07" y2="145.23"/><line class="cls-1" x1="232.5" y1="125.08" x2="240.07" y2="125.08"/><line class="cls-1" x1="237.51" y1="145.23" x2="237.51" y2="125.08"/><line class="cls-1" x1="240.07" y1="145.23" x2="240.07" y2="125.08"/><rect class="cls-1" x="205.69" y="108.6" width="26.81" height="53.61"/><rect class="cls-1" x="347.3" y="159.97" width="22.31" height="35.71"/></g></g></svg>