<svg xmlns="http://www.w3.org/2000/svg" viewBox="0 0 71.83 95.95"><defs><style>.cls-1{fill:none;stroke:#231f20;stroke-linecap:round;stroke-miterlimit:10;}</style></defs><title>logo_1</title><g id="Layer_2" data-name="Layer 2"><g id="Layer_1-2" data-name="Layer 1"><line class="cls-1" x1="0.5" y1="0.5" x2="71.33" y2="0.5"/><line class="cls-1" x1="0.5" y1="0.5" x2="0.5" y2="11.66"/><line class="cls-1" x1="71.33" y1="0.5" x2="71.33" y2="11.66"/><line class="cls-1" x1="35.92" y1="11.66" x2="0.67" y2="53.32"/><line class="cls-1" x1="22.09" y1="11.66" x2="0.67" y2="36.98"/><line class="cls-1" x1="0.67" y1="53.32" x2="0.67" y2="36.98"/><line class="cls-1" x1="35.7" y1="11.66" x2="70.95" y2="53.32"/><line class="cls-1" x1="49.53" y1="11.66" x2="70.95" y2="36.98"/><line class="cls-1" x1="70.95" y1="53.32" x2="70.95" y2="36.98"/><line class="cls-1" x1="0.67" y1="95.45" x2="0.67" y2="63.97"/><line class="cls-1" x1="70.95" y1="63.97" x2="0.67" y2="63.97"/><line class="cls-1" x1="71.33" y1="95.45" x2="71.33" y2="63.97"/><line class="cls-1" x1="8.76" y1="95.45" x2="8.76" y2="73.42"/><line class="cls-1" x1="8.76" y1="95.45" x2="0.67" y2="95.45"/><line class="cls-1" x1="62.95" y1="95.45" x2="62.95" y2="73.42"/><line class="cls-1" x1="71.33" y1="95.45" x2="63.24" y2="95.45"/><line class="cls-1" x1="0.67" y1="88.65" x2="0.67" y2="73.42"/><line class="cls-1" x1="8.76" y1="73.42" x2="62.95" y2="73.42"/><line class="cls-1" x1="22.09" y1="11.66" x2="0.5" y2="11.66"/><line class="cls-1" x1="0.5" y1="0.5" x2="0.5" y2="11.66"/><line class="cls-1" x1="71.33" y1="0.5" x2="0.5" y2="0.5"/><line class="cls-1" x1="71.33" y1="11.66" x2="71.33" y2="0.5"/><line class="cls-1" x1="49.53" y1="11.66" x2="71.33" y2="11.66"/></g></g></svg>