<svg xmlns="http://www.w3.org/2000/svg" viewBox="0 0 202.33 127.89"><defs><style>.cls-1{font-size:18px;fill:#231f20;font-family:TwCenMT-Regular, Tw Cen MT;}.cls-2{letter-spacing:-0.02em;}.cls-3{fill:none;stroke:#231f20;stroke-linecap:round;stroke-miterlimit:10;}</style></defs><title>logoAsset 6</title><g id="Layer_2" data-name="Layer 2"><g id="Layer_1-2" data-name="Layer 1"><text class="cls-1" transform="translate(63.61 113.29)">Claire <tspan class="cls-2" x="48.66" y="0">K</tspan><tspan x="58.23" y="0">oh</tspan></text><line class="cls-3" x1="65.75" y1="0.5" x2="136.58" y2="0.5"/><line class="cls-3" x1="65.75" y1="0.5" x2="65.75" y2="11.66"/><line class="cls-3" x1="136.58" y1="0.5" x2="136.58" y2="11.66"/><line class="cls-3" x1="101.16" y1="11.66" x2="65.91" y2="53.32"/><line class="cls-3" x1="87.33" y1="11.66" x2="65.91" y2="36.98"/><line class="cls-3" x1="65.91" y1="53.32" x2="65.91" y2="36.98"/><line class="cls-3" x1="100.95" y1="11.66" x2="136.19" y2="53.32"/><line class="cls-3" x1="114.78" y1="11.66" x2="136.19" y2="36.98"/><line class="cls-3" x1="136.19" y1="53.32" x2="136.19" y2="36.98"/><line class="cls-3" x1="65.91" y1="95.45" x2="65.91" y2="63.97"/><line class="cls-3" x1="136.19" y1="63.97" x2="65.91" y2="63.97"/><line class="cls-3" x1="136.58" y1="95.45" x2="136.58" y2="63.97"/><line class="cls-3" x1="74.01" y1="95.45" x2="74.01" y2="73.42"/><line class="cls-3" x1="74.01" y1="95.45" x2="65.91" y2="95.45"/><line class="cls-3" x1="128.2" y1="95.45" x2="128.2" y2="73.42"/><line class="cls-3" x1="136.58" y1="95.45" x2="128.49" y2="95.45"/><line class="cls-3" x1="65.91" y1="88.65" x2="65.91" y2="73.42"/><line class="cls-3" x1="74.01" y1="73.42" x2="128.2" y2="73.42"/><line class="cls-3" x1="87.33" y1="11.66" x2="65.75" y2="11.66"/><line class="cls-3" x1="65.75" y1="0.5" x2="65.75" y2="11.66"/><line class="cls-3" x1="136.58" y1="0.5" x2="65.75" y2="0.5"/><line class="cls-3" x1="136.58" y1="11.66" x2="136.58" y2="0.5"/><line class="cls-3" x1="114.78" y1="11.66" x2="136.58" y2="11.66"/></g></g></svg>